<svg width="60" height="22" viewBox="0 0 60 22" fill="none" xmlns="http://www.w3.org/2000/svg">
<path fill-rule="evenodd" clip-rule="evenodd" d="M3.11991 21.1583C2.87998 21.1583 2.64006 21.0696 2.54409 20.8921C2.40013 20.7147 2.35215 20.4929 2.44812 20.2712L7.24661 7.58569H1.68036C1.29648 7.58569 0.960583 7.2752 0.960583 6.92036L0.912598 1.50907C0.912598 1.33165 0.960583 1.15423 1.10454 1.02117C1.24849 0.888105 1.44043 0.84375 1.63237 0.84375H17.7553C17.9952 0.84375 18.2352 0.93246 18.3311 1.10988C18.4751 1.2873 18.5231 1.50907 18.4271 1.73085L11.1334 20.7147C11.0374 20.9808 10.7495 21.1583 10.4616 21.1583H3.11991Z" fill="#E4007C"/>
<path d="M19.05 0.620968C18.7621 0.221774 18.2823 0 17.7544 0H1.63149C1.19962 0 0.767759 0.177419 0.47985 0.443548C0.19194 0.709677 0 1.10887 0 1.50806L0.047985 6.91936C0.047985 7.7621 0.767759 8.42742 1.67947 8.42742H5.95013L1.5835 20.004C1.39156 20.4476 1.48753 20.9798 1.77544 21.379C2.06335 21.7782 2.59119 22 3.11902 22H10.4607C11.1325 22 11.7563 21.6008 11.9962 20.9798L19.29 1.99597C19.4339 1.55242 19.3859 1.02016 19.05 0.620968ZM17.5145 1.68548L10.3168 20.3589H3.35895L8.49334 6.78629H1.82343V1.68548H17.5145Z" fill="#383367"/>
<path d="M59.3636 12.5961C59.3636 12.4187 59.3156 11.576 58.8838 10.6889C58.7398 10.4228 58.5958 10.201 58.4519 9.97921C58.5479 9.75744 58.5958 9.53566 58.5958 9.31389V6.69695C58.5958 5.85421 57.8761 5.14453 56.9164 5.14453H51.4941C51.4461 5.14453 51.4461 5.14453 51.3981 5.14453C51.2062 5.14453 50.3424 5.23324 49.4307 5.7655C49.0468 5.98727 48.7109 6.2534 48.423 6.60824C47.8952 6.20905 47.3194 5.89856 46.6956 5.63243C45.8798 5.32195 45.0161 5.14453 44.1044 5.14453C43.1927 5.14453 42.3289 5.32195 41.5132 5.63243C41.1773 5.7655 40.8894 5.89856 40.6015 6.07598C40.3616 5.54372 39.7857 5.18889 39.1139 5.18889H35.611C34.6993 5.18889 33.9316 5.85421 33.9316 6.74131V7.85018C33.6916 7.53969 33.4517 7.22921 33.1638 6.96308C32.54 6.38647 31.8202 5.94292 31.0525 5.63243C30.2367 5.32195 29.373 5.14453 28.4613 5.14453C27.5496 5.14453 26.6858 5.32195 25.8701 5.63243C25.5342 5.7655 25.1983 5.94292 24.8624 6.12034C24.6225 5.54372 23.9987 5.18889 23.3269 5.18889H19.824C19.1522 5.18889 18.6724 5.58808 18.2885 6.07598C18.1445 6.2534 17.7606 6.78566 17.7606 6.78566L16.8969 5.7655C16.561 5.36631 16.0812 5.14453 15.6013 5.14453H12.0984C11.1867 5.14453 10.4189 5.80985 10.4189 6.69695V15.9671C10.4189 16.8099 11.1387 17.5195 12.0984 17.5195H15.6013C16.513 17.5195 17.2808 16.8542 17.2808 15.9671V15.3905C17.4247 15.4349 17.6167 15.4792 17.7606 15.4792C17.9046 15.4792 18.0486 15.4792 18.1445 15.4349V15.9671C18.1445 16.8099 18.8643 17.5195 19.824 17.5195H23.3269C24.0467 17.5195 24.6705 17.076 24.8624 16.4994C25.1503 16.6768 25.4862 16.8542 25.8221 16.9873C26.6379 17.2978 27.5016 17.4752 28.4133 17.4752C29.325 17.4752 30.1887 17.2978 31.0045 16.9873C31.2924 16.8542 31.5803 16.7655 31.8202 16.5881C32.0602 17.1203 32.684 17.5195 33.3558 17.5195H35.3711C35.755 17.5195 37.0506 17.3421 38.2502 16.5881C38.6821 16.322 39.066 16.0115 39.4019 15.6566C39.4019 15.6566 39.4019 15.6566 39.4498 15.701C40.0736 16.2776 40.7934 16.7211 41.5612 17.0316C42.3769 17.3421 43.2407 17.5195 44.1524 17.5195C45.0641 17.5195 45.9278 17.3421 46.7436 17.0316C47.2714 16.8099 47.7992 16.5437 48.2311 16.2332C48.3271 16.9873 49.0468 17.5639 49.8626 17.5639H55.2849C55.3329 17.5639 55.3329 17.5639 55.3808 17.5639C55.5728 17.5639 56.4365 17.4752 57.3482 16.9429C57.9241 16.5881 58.4039 16.1445 58.7398 15.6123C59.1237 14.9913 59.3636 14.2373 59.3636 13.3945V12.5961Z" fill="#383367"/>
<path fill-rule="evenodd" clip-rule="evenodd" d="M35.6108 6.70068H39.1137V11.7571C39.1137 15.5716 35.5628 15.9708 35.3709 15.9708H33.3555V12.6442H34.891C34.891 12.6442 35.5628 12.5999 35.5628 11.491L35.6108 6.70068ZM55.2846 10.0273H53.1733C53.1733 10.0273 52.7894 9.98294 52.7894 9.67246C52.7894 9.36197 53.2213 9.31762 53.2213 9.31762H56.9641V6.70068H51.5418C51.5418 6.70068 49.1425 6.83375 49.1425 9.31762C49.1425 12.4225 50.918 12.5999 51.5418 12.5999H53.6531C53.6531 12.5999 54.037 12.6442 54.037 12.9547C54.037 13.2652 53.6051 13.3096 53.6051 13.3096H49.8623V15.9265H55.2846C55.2846 15.9265 57.6839 15.7934 57.6839 13.3096V12.6442C57.6839 12.6442 57.6359 10.0273 55.2846 10.0273ZM17.7604 9.31762L15.601 6.70068H12.0981V15.9708H15.601V11.4023L17.7604 13.9749L19.8237 11.5354V15.9708H23.3266V6.70068H19.8237L17.7604 9.31762ZM33.4515 11.3136C33.4515 13.8418 31.1962 15.9265 28.461 15.9265C25.6779 15.9265 23.4706 13.8418 23.4706 11.3136C23.4706 8.78536 25.7259 6.70068 28.461 6.70068C31.1962 6.70068 33.4515 8.78536 33.4515 11.3136ZM29.8526 11.3579C29.8526 10.6483 29.2288 10.0273 28.461 10.0273C27.6933 10.0273 27.0215 10.6039 27.0215 11.3579C27.0215 12.0676 27.6453 12.6442 28.413 12.6886C29.2288 12.6442 29.8526 12.0676 29.8526 11.3579ZM49.1425 11.3136C49.1425 13.8418 46.8872 15.9265 44.1521 15.9265C41.369 15.9265 39.1617 13.8418 39.1617 11.3136C39.1617 8.78536 41.417 6.70068 44.1521 6.70068C46.8872 6.70068 49.1425 8.78536 49.1425 11.3136ZM45.5437 11.3579C45.5437 10.6483 44.9199 10.0273 44.1521 10.0273C43.3843 10.0273 42.7126 10.6039 42.7126 11.3579C42.7126 12.0676 43.3364 12.6442 44.1041 12.6886C44.9199 12.6442 45.5437 12.0676 45.5437 11.3579Z" fill="url(#paint0_linear_38_207)"/>
<path fill-rule="evenodd" clip-rule="evenodd" d="M27.9761 12.2388L29.3676 12.1944L28.8878 11.6622L29.4636 12.1057L29.5116 10.8638L29.5596 12.1057L30.1354 11.6178L29.6076 12.1944L30.9991 12.2388L29.6076 12.2831L30.0874 12.8154L29.5116 12.3718L29.4156 13.6581L29.3676 12.3718L28.8398 12.8597L29.3676 12.2831L27.9761 12.2388Z" fill="white"/>
<path fill-rule="evenodd" clip-rule="evenodd" d="M10.4595 6.69515L11.947 6.6508L11.4192 6.07419L12.043 6.56209L12.091 5.23145L12.1389 6.56209L12.7628 6.02983L12.2349 6.6508L13.7225 6.69515L12.2349 6.73951L12.7628 7.27177L12.1389 6.78386L12.043 8.15886L11.995 6.78386L11.3232 7.31612L11.899 6.69515H10.4595Z" fill="white"/>
<path fill-rule="evenodd" clip-rule="evenodd" d="M39.1089 8.16813L40.4045 8.12377L39.9246 7.63587L40.4525 8.03506L40.5005 6.88184L40.5484 8.03506L41.1243 7.59151L40.6444 8.12377L41.94 8.16813L40.6444 8.21248L41.0763 8.70038L40.5484 8.25684L40.4525 9.45442L40.4045 8.25684L39.8287 8.74474L40.3085 8.21248L39.1089 8.16813Z" fill="white"/>
<path d="M3.22222 3.02213L2.0226 1.82455C2.07059 1.78019 2.16656 1.73584 2.26253 1.73584L2.88633 1.69148H2.93432H3.07827L2.21454 1.64713C2.11857 1.64713 2.07059 1.60277 2.0226 1.55842L3.22222 0.36084L1.92663 1.51407C1.87865 1.42536 1.87865 1.33665 1.83066 1.24794V0.848743C1.83066 0.804388 1.83066 0.715678 1.83066 0.671324C1.83066 0.715678 1.83066 0.715678 1.83066 0.760033V0.538259L1.73469 1.381C1.73469 1.42536 1.68671 1.46971 1.68671 1.51407L0.391113 0.36084L1.59074 1.55842C1.54275 1.60277 1.49477 1.64713 1.3988 1.64713L0.727008 1.69148C0.727008 1.69148 0.727008 1.69148 0.679023 1.69148H0.535068L1.44678 1.73584C1.49477 1.78019 1.54275 1.78019 1.59074 1.82455L0.391113 3.02213L1.68671 1.91326C1.73469 1.95761 1.73469 2.00197 1.78268 2.09068L1.83066 2.88906L1.87865 2.13503C1.87865 2.04632 1.92663 2.00197 1.97462 1.95761L3.22222 3.02213Z" fill="white"/>
<defs>
<linearGradient id="paint0_linear_38_207" x1="34.8834" y1="7.43822" x2="34.8834" y2="16.4531" gradientUnits="userSpaceOnUse">
<stop offset="0.0644217" stop-color="#FFED2F"/>
<stop offset="0.0953293" stop-color="#FEE222"/>
<stop offset="0.1547" stop-color="#FED30F"/>
<stop offset="0.2158" stop-color="#FDCA04"/>
<stop offset="0.2809" stop-color="#FDC700"/>
<stop offset="0.6685" stop-color="#F08F34"/>
<stop offset="0.8876" stop-color="#E96131"/>
<stop offset="1" stop-color="#E1312E"/>
</linearGradient>
</defs>
</svg>
