<svg width="20" height="24" viewBox="0 0 20 24" fill="none" xmlns="http://www.w3.org/2000/svg">
<path d="M10 0.526367C6.6916 0.526367 4 3.21797 4 6.52637C4 9.83477 6.6916 12.5264 10 12.5264C13.3084 12.5264 16 9.83477 16 6.52637C16 3.21797 13.3084 0.526367 10 0.526367Z" fill="white"/>
<path d="M17.4652 16.4458C15.8225 14.7779 13.6448 13.8594 11.3333 13.8594H8.66667C6.3552 13.8594 4.17751 14.7779 2.53484 16.4458C0.900222 18.1056 0 20.2964 0 22.6149C0 22.9831 0.298489 23.2816 0.666667 23.2816H19.3333C19.7015 23.2816 20 22.9831 20 22.6149C20 20.2964 19.0998 18.1056 17.4652 16.4458Z" fill="white"/>
</svg>
