<svg width="20" height="20" viewBox="0 0 20 20" fill="none" xmlns="http://www.w3.org/2000/svg">
<path d="M19.1058 0.892069C17.9166 -0.297356 15.9884 -0.297356 14.7992 0.892069L14.5271 1.16418L18.8338 5.47153L19.1058 5.19941C20.2951 4.00999 20.2951 2.08149 19.1058 0.892069Z" fill="#3C46B7"/>
<path d="M12.6492 3.03711L13.6928 1.99334L17.9988 6.30003L16.9552 7.3438L12.6492 3.03711Z" fill="#3C46B7"/>
<path d="M12.3022 10.799L14.0879 12.585L16.2676 8.30784L15.1031 7.14307L12.3022 10.799Z" fill="#3C46B7"/>
<path d="M9.09562 9.25244L3.37877 13.6335C3.2097 14.4387 3.43708 15.3106 4.06223 15.9358C4.68737 16.561 5.55908 16.7884 6.36423 16.6193L10.7446 10.9016L9.09562 9.25244Z" fill="#3C46B7"/>
<path d="M14.2705 6.30608L13.6954 5.73096L10.04 8.53223L11.4697 9.96205L14.2705 6.30608Z" fill="#3C46B7"/>
<path d="M12.8563 4.89577L11.6917 3.73096L7.41528 5.91109L9.20092 7.69705L12.8563 4.89577Z" fill="#3C46B7"/>
<path d="M6.82129 17.9479C6.86421 18.4569 7.07996 18.9541 7.46936 19.3436C8.34474 20.2191 9.76398 20.2191 10.6393 19.3436L13.5246 13.6821L11.5796 11.7368L6.82129 17.9479Z" fill="#3C46B7"/>
<path d="M6.31702 6.47168L0.656534 9.35741C-0.218845 10.2329 -0.218845 11.6524 0.656534 12.5279C1.04597 12.9174 1.54304 13.1331 2.05199 13.176L8.26209 8.41701L6.31702 6.47168Z" fill="#3C46B7"/>
</svg>
