<svg width="15" height="15" viewBox="0 0 15 15" fill="none" xmlns="http://www.w3.org/2000/svg">
<path d="M14.3119 13.6289H0.681687C0.3051 13.6289 0 13.934 0 14.3109C0 14.6872 0.3051 14.9923 0.681687 14.9923H14.3116C14.6882 14.9923 14.9933 14.6872 14.9933 14.3109C14.993 13.934 14.6879 13.6289 14.3119 13.6289Z" fill="#727CF5"/>
<path d="M1.53343 11.8579C1.15685 11.8579 0.851746 12.163 0.851746 12.5396C0.851746 12.9162 1.15685 13.2216 1.53343 13.2216H13.4598C13.8364 13.2216 14.1415 12.9162 14.1415 12.5396C14.1415 12.163 13.8364 11.8579 13.4598 11.8579H13.2897V5.72402H13.4598C13.6484 5.72402 13.8003 5.57147 13.8003 5.38349C13.8003 5.19552 13.6477 5.04297 13.4598 5.04297H1.53343C1.34514 5.04297 1.19291 5.19552 1.19291 5.38349C1.19291 5.57147 1.34546 5.72402 1.53343 5.72402H1.70385V11.8576L1.53343 11.8579ZM11.9263 5.72402V11.8576H9.88186V5.72402H11.9263ZM8.51849 5.72402V11.8576H6.47407V5.72402H8.51849ZM3.06659 5.72402H5.11101V11.8576H3.06659V5.72402Z" fill="#727CF5"/>
<path d="M0.6817 4.42953H14.3116C14.3138 4.42953 14.3164 4.42953 14.3183 4.42953C14.6952 4.42953 15 4.12443 15 3.74784C15 3.44849 14.8072 3.19477 14.5395 3.10286L7.77686 0.0598391C7.5991 -0.0199464 7.39581 -0.0199464 7.21772 0.0598391L0.402132 3.12647C0.10884 3.2586 -0.0523263 3.5771 0.0153318 3.89114C0.0826707 4.20517 0.360324 4.42953 0.6817 4.42953Z" fill="#727CF5"/>
</svg>
