<svg width="32" height="33" viewBox="0 0 32 33" fill="none" xmlns="http://www.w3.org/2000/svg">
<path d="M8.28267 18.0889C8.18037 18.1912 8.12291 18.3299 8.12291 18.4746C8.12291 18.6193 8.18037 18.758 8.28267 18.8603L9.12035 19.698C9.22264 19.8003 9.36138 19.8577 9.50604 19.8577C9.65071 19.8577 9.78944 19.8003 9.89174 19.698C9.99403 19.5957 10.0515 19.457 10.0515 19.3123C10.0515 19.1676 9.99403 19.0289 9.89174 18.9266L9.05406 18.0889C8.95176 17.9866 8.81303 17.9292 8.66836 17.9292C8.5237 17.9292 8.38496 17.9866 8.28267 18.0889Z" fill="white"/>
<path d="M10.3776 20.1846C10.2753 20.2869 10.2179 20.4256 10.2179 20.5703C10.2179 20.715 10.2753 20.8537 10.3776 20.956L11.2153 21.7937C11.3176 21.896 11.4563 21.9534 11.601 21.9534C11.7457 21.9534 11.8844 21.896 11.9867 21.7937C12.089 21.6914 12.1465 21.5527 12.1465 21.408C12.1465 21.2633 12.089 21.1246 11.9867 21.0223L11.149 20.1846C11.0467 20.0823 10.908 20.0249 10.7633 20.0249C10.6187 20.0249 10.4799 20.0823 10.3776 20.1846Z" fill="white"/>
<path d="M12.4726 22.2793C12.3703 22.3816 12.3128 22.5204 12.3128 22.665C12.3128 22.8097 12.3703 22.9484 12.4726 23.0507L13.3103 23.8884C13.4126 23.9907 13.5513 24.0482 13.696 24.0482C13.8406 24.0482 13.9794 23.9907 14.0817 23.8884C14.184 23.7861 14.2414 23.6474 14.2414 23.5027C14.2414 23.3581 14.184 23.2193 14.0817 23.117L13.244 22.2793C13.1417 22.1771 13.003 22.1196 12.8583 22.1196C12.7136 22.1196 12.5749 22.1771 12.4726 22.2793Z" fill="white"/>
<path d="M2.64864 14.8719C2.23701 15.3587 2.12715 16.0674 2.42943 16.6685L3.46673 18.7333C2.89273 19.4121 2.91818 20.4387 3.55713 21.0776L5.09162 22.6121C5.2591 22.7794 5.5153 22.8195 5.72591 22.7116C6.36236 22.3857 7.37519 22.5819 8.11541 23.3217C8.85576 24.062 9.05231 25.0753 8.72634 25.712C8.61838 25.9226 8.65855 26.1788 8.82578 26.3463L11.1309 28.6514C11.8041 29.3246 12.912 29.3246 13.5852 28.6514L19.6742 22.5624L28.4585 18.2497C29.2695 17.8516 29.593 16.8523 29.19 16.0508L28.1791 14.0395C28.766 13.361 28.745 12.3244 28.1015 11.6809L25.7956 9.37497C25.6281 9.20774 25.3719 9.16758 25.1613 9.27553C24.5249 9.6014 23.512 9.40524 22.7718 8.66535C22.0314 7.92513 21.8349 6.91176 22.1609 6.2751C22.2688 6.06449 22.2287 5.80829 22.0614 5.64081L20.5277 4.10707C19.8545 3.43391 18.7466 3.43391 18.0734 4.10707L11.9859 10.1946L3.16315 14.4673C2.95847 14.5658 2.79996 14.7378 2.64864 14.8719ZM3.4705 15.5807C3.5171 15.5273 3.57587 15.4817 3.64526 15.4466C5.64128 14.4796 7.63774 13.5131 9.63408 12.5464L4.27277 17.9077L3.40345 16.1781C3.29859 15.9696 3.33068 15.741 3.4705 15.5807ZM4.32852 19.3947L6.57263 17.1506L6.93949 17.5175C7.1525 17.7305 7.49787 17.7305 7.71088 17.5175C7.92389 17.3045 7.92389 16.9591 7.71088 16.7461L7.34402 16.3792L18.8448 4.87846C19.104 4.61923 19.4971 4.61923 19.7563 4.87846L21.0693 6.19148C20.7323 7.2791 21.0962 8.53272 22.0004 9.43674C22.9044 10.3404 24.1576 10.7041 25.2449 10.3671L27.3301 12.4522C27.5893 12.7115 27.5893 13.1045 27.3301 13.3637L15.8285 24.8653C15.6973 24.7302 15.5592 24.5945 15.4248 24.46C15.2118 24.247 14.8664 24.247 14.6534 24.46C14.4404 24.673 14.4404 25.0184 14.6534 25.2314C14.7865 25.366 14.926 25.5033 15.0587 25.6351L12.8138 27.88C12.5545 28.1393 12.1615 28.1393 11.9023 27.88L9.81789 25.7956C10.1549 24.708 9.79098 23.4544 8.8868 22.5504C7.98278 21.6467 6.72956 21.283 5.64229 21.62L4.32852 20.3062C4.06928 20.047 4.06928 19.654 4.32852 19.3947ZM22.0614 20.1752L27.3723 14.8643L28.2152 16.5404C28.3552 16.8188 28.252 17.1359 27.9779 17.2704L22.0614 20.1752Z" fill="white"/>
<path d="M15.3723 19.3438L12.8797 16.8513L14.0889 15.6421C14.367 15.364 14.6381 15.2084 14.9021 15.1754C15.1684 15.1401 15.4006 15.2214 15.5986 15.4194C15.7447 15.5655 15.826 15.734 15.8425 15.9249C15.8614 16.1135 15.8154 16.3009 15.7046 16.4871L15.648 16.4305C15.8555 16.2844 16.0593 16.2172 16.2597 16.229C16.46 16.2361 16.6439 16.3233 16.8112 16.4906C17.0304 16.7098 17.1235 16.9632 17.0905 17.2508C17.0552 17.536 16.8984 17.8176 16.6203 18.0958L15.3723 19.3438ZM15.5208 18.2407L16.0582 17.7033C16.1807 17.5808 16.2491 17.4676 16.2632 17.3639C16.2797 17.2578 16.2408 17.1577 16.1466 17.0634C16.0499 16.9668 15.9497 16.9279 15.846 16.9467C15.7447 16.9632 15.6327 17.0327 15.5102 17.1553L14.9728 17.6927L15.5208 18.2407ZM14.4955 17.2154L14.9586 16.7523C15.0835 16.6273 15.1531 16.5154 15.1672 16.4164C15.1837 16.315 15.1484 16.2208 15.0612 16.1335C14.9739 16.0463 14.8808 16.0122 14.7818 16.031C14.6828 16.0452 14.5709 16.1147 14.446 16.2396L13.9828 16.7028L14.4955 17.2154ZM17.8513 16.8648L15.3587 14.3722L17.1477 12.5833L17.6462 13.0818L16.483 14.245L16.9603 14.7223L18.0387 13.6439L18.5407 14.146L17.4624 15.2243L17.975 15.737L19.1382 14.5738L19.6403 15.0758L17.8513 16.8648ZM20.5681 14.148L18.6023 12.1823L17.8457 12.9389L17.3189 12.4121L19.4862 10.2448L20.013 10.7716L19.2564 11.5282L21.2221 13.4939L20.5681 14.148Z" fill="white"/>
</svg>
