<svg width="27" height="28" viewBox="0 0 27 28" fill="none" xmlns="http://www.w3.org/2000/svg">
<path d="M26.6108 17.1465C24.8739 24.1131 17.8178 28.3529 10.8504 26.6156C3.88575 24.8787 -0.354056 17.8223 1.38364 10.856C3.11972 3.88857 10.1758 -0.351641 17.1412 1.38525C24.1083 3.12213 28.3477 10.1794 26.6108 17.1465Z" fill="#F7931A"/>
<path d="M19.7308 12.1478C19.9897 10.4174 18.6722 9.48715 16.8707 8.8666L17.4551 6.52258L16.0282 6.16699L15.4593 8.44925C15.0842 8.35578 14.699 8.26759 14.3161 8.18022L14.8891 5.88293L13.4631 5.52734L12.8784 7.87056C12.5679 7.79985 12.2631 7.72995 11.9672 7.65639L11.9689 7.64908L10.0012 7.15776L9.62159 8.6817C9.62159 8.6817 10.6802 8.92431 10.6579 8.93935C11.2357 9.08361 11.3402 9.46602 11.3227 9.76918L10.6571 12.4395C10.6969 12.4497 10.7485 12.4643 10.8054 12.4871C10.7578 12.4753 10.707 12.4623 10.6546 12.4497L9.72156 16.1905C9.65085 16.366 9.47163 16.6294 9.06769 16.5294C9.08191 16.5501 8.03059 16.2705 8.03059 16.2705L7.32227 17.9038L9.17904 18.3667C9.52446 18.4532 9.86298 18.5438 10.1962 18.6292L9.60574 21L11.0309 21.3556L11.6157 19.01C12.005 19.1156 12.383 19.2132 12.7528 19.305L12.17 21.6397L13.5968 21.9953L14.1873 19.6289C16.6203 20.0893 18.4499 19.9036 19.22 17.703C19.8405 15.9312 19.1891 14.9091 17.909 14.2427C18.8412 14.0277 19.5435 13.4145 19.7308 12.1478ZM16.4708 16.7192C16.0299 18.491 13.0466 17.5332 12.0794 17.293L12.8629 14.152C13.8301 14.3934 16.9316 14.8713 16.4708 16.7192ZM16.9121 12.1222C16.5098 13.7339 14.0268 12.915 13.2213 12.7143L13.9317 9.8655C14.7372 10.0663 17.3311 10.4409 16.9121 12.1222Z" fill="white"/>
</svg>
