<svg width="15" height="18" viewBox="0 0 15 18" fill="none" xmlns="http://www.w3.org/2000/svg">
<path d="M14.9807 4.5964C14.9716 4.11443 14.9628 3.65913 14.9628 3.21866C14.9628 2.87358 14.6832 2.59382 14.338 2.59382C11.6657 2.59382 9.63118 1.82584 7.93527 0.176924C7.69266 -0.0590164 7.30659 -0.0589331 7.06407 0.176924C5.36833 1.82584 3.33409 2.59382 0.662015 2.59382C0.316935 2.59382 0.0371719 2.87358 0.0371719 3.21866C0.0371719 3.65921 0.0285074 4.11468 0.0192598 4.59673C-0.0663854 9.08193 -0.183688 15.2246 7.29501 17.8169C7.36133 17.8399 7.43048 17.8514 7.49963 17.8514C7.56878 17.8514 7.63801 17.8399 7.70424 17.8169C15.1835 15.2246 15.0664 9.08168 14.9807 4.5964Z" fill="#727CF5"/>
<path d="M9.6516 6.75524L6.63578 9.7709L5.34885 8.48397C5.10483 8.24003 4.70918 8.24003 4.46524 8.48397C4.22122 8.72808 4.22122 9.12365 4.46524 9.36767L6.19397 11.0964C6.31594 11.2184 6.4759 11.2794 6.63578 11.2794C6.79566 11.2794 6.95562 11.2184 7.07759 11.0964L10.5351 7.63893C10.7792 7.39491 10.7792 6.99926 10.5352 6.75532C10.2913 6.5113 9.89563 6.51122 9.6516 6.75524Z" fill="white"/>
</svg>
