<svg width="15" height="11" viewBox="0 0 15 11" fill="none" xmlns="http://www.w3.org/2000/svg">
<path d="M15 2.43164V1.64062C15 0.734531 14.2655 0 13.3594 0H1.64062C0.734531 0 0 0.734531 0 1.64062V2.43164C0 2.51253 0.0655957 2.57812 0.146484 2.57812H14.8535C14.9344 2.57812 15 2.51253 15 2.43164Z" fill="#727CF5"/>
<path d="M0 3.66211V8.67188C0 9.57797 0.734531 10.3125 1.64062 10.3125H13.3594C14.2655 10.3125 15 9.57797 15 8.67188V3.66211C15 3.58122 14.9344 3.51562 14.8535 3.51562H0.146484C0.0655957 3.51562 0 3.58122 0 3.66211ZM3.75 7.5C3.75 7.75887 3.54012 7.96875 3.28125 7.96875H2.8125C2.55363 7.96875 2.34375 7.75887 2.34375 7.5V7.03125C2.34375 6.77238 2.55363 6.5625 2.8125 6.5625H3.28125C3.54012 6.5625 3.75 6.77238 3.75 7.03125V7.5Z" fill="#727CF5"/>
</svg>
