<svg width="22" height="22" viewBox="0 0 22 22" fill="none" xmlns="http://www.w3.org/2000/svg">
<path d="M17.993 3.70674C16.1042 1.81803 13.593 0.777832 10.9219 0.777832C8.25078 0.777832 5.73957 1.81803 3.85078 3.70674C1.96207 5.59553 0.921875 8.10674 0.921875 10.7778C0.921875 13.4489 1.96207 15.9601 3.85078 17.8489C5.73957 19.7376 8.25078 20.7778 10.9219 20.7778C13.593 20.7778 16.1042 19.7376 17.993 17.8489C19.8817 15.9601 20.9219 13.4489 20.9219 10.7778C20.9219 8.10674 19.8817 5.59553 17.993 3.70674ZM3.73039 10.1919H2.11336C2.23988 8.24857 2.9943 6.42717 4.27898 4.96361L5.42492 6.10955C4.47266 7.22916 3.85555 8.64201 3.73039 10.1919ZM15.5902 5.28092C14.4705 4.32861 13.0577 3.71146 11.5078 3.58631V1.96932C13.4511 2.09584 15.2725 2.85029 16.7361 4.13498L15.5902 5.28092ZM10.3359 3.58631C8.78605 3.71146 7.3732 4.32861 6.25355 5.28088L5.10762 4.13494C6.57121 2.85029 8.39262 2.0958 10.3359 1.96932V3.58631ZM10.9219 4.73432C14.2543 4.73432 16.9654 7.44545 16.9654 10.7778C16.9654 14.1102 14.2543 16.8213 10.9219 16.8213C7.58945 16.8213 4.87836 14.1103 4.87836 10.7778C4.87836 7.44541 7.58945 4.73432 10.9219 4.73432ZM6.25359 16.2748C7.3732 17.2271 8.78605 17.8442 10.3359 17.9694V19.5864C8.39262 19.4599 6.57121 18.7054 5.10766 17.4207L6.25359 16.2748ZM11.5078 17.9694C13.0577 17.8442 14.4705 17.2271 15.5902 16.2748L16.7361 17.4207C15.2725 18.7054 13.4511 19.4599 11.5078 19.5863V17.9694ZM16.4188 15.4461C17.3711 14.3265 17.9882 12.9136 18.1134 11.3638H19.7304C19.6039 13.3071 18.8495 15.1285 17.5648 16.5921L16.4188 15.4461ZM19.7304 10.1919H18.1134C17.9882 8.64201 17.3711 7.22916 16.4188 6.10951L17.5648 4.96357C18.8495 6.42717 19.6039 8.24857 19.7304 10.1919ZM2.11336 11.3638H3.73039C3.85555 12.9137 4.47266 14.3265 5.42492 15.4461L4.27898 16.5921C2.9943 15.1285 2.23984 13.3071 2.11336 11.3638Z" fill="white" stroke="white" stroke-width="0.5"/>
<path d="M11.0367 12.1626H10.8079C10.5451 12.1626 10.3313 11.9488 10.3313 11.686H9.15942C9.15942 12.4312 9.65649 13.0621 10.3364 13.2654V14.4316H11.5083V13.2654C12.1881 13.0621 12.6852 12.4312 12.6852 11.686C12.6852 10.777 11.9457 10.0375 11.0367 10.0375H10.8079C10.5451 10.0375 10.3313 9.82375 10.3313 9.56094C10.3313 9.29813 10.5452 9.08434 10.8079 9.08434H11.0367C11.2995 9.08434 11.5133 9.29813 11.5133 9.56094H12.6852C12.6852 8.81582 12.1881 8.18492 11.5083 7.98156V6.81543H10.3364V7.98156C9.65649 8.18492 9.15942 8.81582 9.15942 9.56094C9.15942 10.4699 9.89896 11.2094 10.8079 11.2094H11.0367C11.2995 11.2094 11.5133 11.4232 11.5133 11.686C11.5133 11.9488 11.2995 12.1626 11.0367 12.1626Z" fill="white" stroke="white" stroke-width="0.5"/>
</svg>
