<svg width="12" height="13" viewBox="0 0 12 13" fill="none" xmlns="http://www.w3.org/2000/svg">
<path d="M7.11841 13H2.2688C1.14874 13 0.237549 12.0888 0.237549 10.9688V4.08789C0.237549 2.96783 1.14874 2.05664 2.2688 2.05664H7.11841C8.23847 2.05664 9.14966 2.96783 9.14966 4.08789V10.9688C9.14966 12.0888 8.23847 13 7.11841 13ZM2.2688 3.07227C1.70882 3.07227 1.25317 3.52791 1.25317 4.08789V10.9688C1.25317 11.5287 1.70882 11.9844 2.2688 11.9844H7.11841C7.67839 11.9844 8.13403 11.5287 8.13403 10.9688V4.08789C8.13403 3.52791 7.67839 3.07227 7.11841 3.07227H2.2688ZM11.1809 9.69922V2.03125C11.1809 0.911186 10.2697 0 9.14966 0H3.51294C3.23245 0 3.00513 0.227325 3.00513 0.507812C3.00513 0.7883 3.23245 1.01562 3.51294 1.01562H9.14966C9.70964 1.01562 10.1653 1.47127 10.1653 2.03125V9.69922C10.1653 9.97971 10.3926 10.207 10.6731 10.207C10.9536 10.207 11.1809 9.97971 11.1809 9.69922Z" fill="white"/>
</svg>
