<svg width="15" height="18" viewBox="0 0 15 18" fill="none" xmlns="http://www.w3.org/2000/svg">
<path d="M0.492188 9.44385L2.59157 9.14838L2.76566 10.3735L0.666275 10.669L0.492188 9.44385Z" fill="#3C46B7"/>
<path d="M0 6.00928L2.09942 5.71433L2.43983 8.10579L0.340412 8.40074L0 6.00928Z" fill="#3C46B7"/>
<path d="M0.817871 11.7156L1.7042 17.9286H3.84614L2.9175 11.4194L0.817871 11.7156Z" fill="#3C46B7"/>
<path d="M11.1567 17.9283H13.2987L14.2082 11.5691L12.1086 11.2729L11.1567 17.9283Z" fill="#3C46B7"/>
<path d="M12.5786 7.95801L12.9005 5.70866L14.9999 6.00623L14.678 8.25558L12.5786 7.95801Z" fill="#3C46B7"/>
<path d="M12.248 10.2266L12.4221 9.00147L14.5215 9.29693L14.3474 10.522L12.248 10.2266Z" fill="#3C46B7"/>
<path d="M0.608589 3.1446L1.61554 2.83533L1.77185 3.33944L5.83629 2.09115L5.67998 1.58704L6.68696 1.27777L6.37427 0.269556L5.36733 0.578817L5.21102 0.074707L1.14657 1.32301L1.30292 1.82711L0.295898 2.13638L0.608589 3.1446Z" fill="#3C46B7"/>
<path d="M6.43359 11.4639V17.9283H8.55401V11.4639C7.88102 11.6352 7.14517 11.645 6.43359 11.4639Z" fill="#3C46B7"/>
<path d="M10.1743 6.45408C9.17798 7.42013 8.3676 7.66559 7.65263 7.88214C6.96713 8.08976 6.37512 8.26903 5.56466 9.05412L5.12842 9.48827C6.34985 10.846 8.46355 10.8934 9.74731 9.61573C10.6776 8.68992 10.91 7.32855 10.4446 6.18506L10.1743 6.45408Z" fill="#3C46B7"/>
<path d="M9.43313 5.69953L9.86927 5.26548C8.6449 3.90608 6.53258 3.86194 5.25037 5.13806C4.32011 6.06387 4.08771 7.42524 4.55311 8.5687L4.82346 8.29964C5.81974 7.33359 6.63012 7.08816 7.34506 6.87161C8.03055 6.664 8.62268 6.48466 9.43313 5.69953Z" fill="#3C46B7"/>
<path d="M9.15549 2.08822L13.2158 3.33521L13.3721 2.8311L14.3812 3.14103L14.6938 2.13281L13.6847 1.82288L13.841 1.31877L9.78077 0.0717773L9.62446 0.575887L8.61535 0.265958L8.30273 1.27421L9.3118 1.58411L9.15549 2.08822Z" fill="#3C46B7"/>
</svg>
