<svg width="53" height="49" viewBox="0 0 53 49" fill="none" xmlns="http://www.w3.org/2000/svg">
<path d="M37.1599 17.0781C37.1462 19.3709 36.6756 21.561 35.8314 23.5689C37.5308 23.9625 39.0771 24.861 40.241 26.1642C40.7889 26.7777 40.7165 27.7025 40.079 28.2299C39.4418 28.7573 38.481 28.6876 37.9328 28.074C37.0248 27.0572 35.7526 26.427 34.3838 26.299C33.5009 27.6576 32.4317 28.8929 31.21 29.971H34.6375C35.478 29.971 36.1594 30.6269 36.1594 31.4358C36.1594 32.2448 35.478 32.9006 34.6375 32.9006H28.7232C29.3809 35.0356 31.4365 36.598 33.8653 36.598C35.4284 36.598 36.911 35.9417 37.9329 34.7976C38.4809 34.1842 39.4419 34.1144 40.0791 34.6416C40.7165 35.1691 40.789 36.0939 40.2412 36.7073C38.6403 38.4996 36.3164 39.5275 33.8653 39.5275C29.9066 39.5275 26.5803 36.8796 25.6926 33.3279C23.6062 34.1406 21.3305 34.5937 18.9482 34.6069C20.4589 41.195 26.573 46.1389 33.8653 46.1389C42.2886 46.1389 49.1413 39.5431 49.1413 31.4358C49.1413 24.4171 44.0047 18.5322 37.1599 17.0781Z" fill="white"/>
<path d="M34.1145 16.9765C34.1145 8.86914 27.2617 2.27344 18.8386 2.27344C10.4154 2.27344 3.5625 8.86924 3.5625 16.9765C3.5625 25.0838 10.4153 31.6797 18.8385 31.6797C27.2616 31.6797 34.1145 25.0839 34.1145 16.9765ZM17.3166 24.6161V24.3252H15.782C14.9415 24.3252 14.2601 23.6693 14.2601 22.8603C14.2601 22.0514 14.9415 21.3955 15.782 21.3955H18.8385C19.6846 21.3955 20.373 20.7329 20.373 19.9185C20.373 19.104 19.6846 18.4415 18.8385 18.4415C16.3139 18.4415 14.2601 16.4646 14.2601 14.0348C14.2601 12.1184 15.5381 10.4846 17.3166 9.87938V9.3372C17.3166 8.52823 17.998 7.87238 18.8385 7.87238C19.6789 7.87238 20.3603 8.52823 20.3603 9.3372V9.62811H21.8949C22.7354 9.62811 23.4168 10.284 23.4168 11.0929C23.4168 11.9019 22.7354 12.5578 21.8949 12.5578H18.8385C17.9923 12.5578 17.3039 13.2203 17.3039 14.0348C17.3039 14.8492 17.9923 15.5118 18.8385 15.5118C21.363 15.5118 23.4168 17.4886 23.4168 19.9185C23.4168 21.8349 22.1388 23.4686 20.3603 24.0739V24.6162C20.3603 25.4251 19.6789 26.081 18.8385 26.081C17.998 26.081 17.3166 25.4251 17.3166 24.6161Z" fill="white"/>
<path d="M19.7646 45.1427C14.281 43.5461 9.30046 39.5602 6.29208 34.4798L7.28426 34.801C8.08102 35.0593 8.94393 34.6465 9.21199 33.8796C9.47994 33.1128 9.05138 32.2822 8.25472 32.0242L3.86182 30.6021C3.06506 30.3445 2.20215 30.7568 1.93409 31.5236L0.456534 35.7516C0.188579 36.5185 0.617145 37.3491 1.41381 37.6071C1.57472 37.6591 1.73827 37.6838 1.89919 37.6838C2.53473 37.6838 3.12766 37.2975 3.34144 36.6856L3.62136 35.8847C5.0349 38.2816 6.8567 40.497 8.98248 42.3897C11.9021 44.9894 15.3257 46.9109 18.8832 47.9468C19.0301 47.9895 19.1785 48.0099 19.3245 48.0099C19.9778 48.0099 20.5817 47.6017 20.7806 46.9688C21.024 46.1946 20.5691 45.377 19.7646 45.1427Z" fill="white"/>
<path d="M51.2864 10.8054C50.49 10.5476 49.6268 10.96 49.3587 11.7268L49.0785 12.5287C47.6572 10.1184 45.8235 7.89133 43.6836 5.99224C40.7719 3.40829 37.36 1.49728 33.817 0.46556C33.0123 0.231091 32.1629 0.66917 31.9196 1.44348C31.6763 2.21788 32.1311 3.03554 32.9356 3.26972C38.4134 4.86471 43.3976 8.85323 46.4066 13.9322L45.4159 13.6115C44.6194 13.3534 43.7563 13.766 43.4882 14.5328C43.2202 15.2996 43.6489 16.1303 44.4456 16.3882L48.8385 17.8104C48.9994 17.8625 49.1629 17.8872 49.3238 17.8872C49.9594 17.8872 50.5522 17.5009 50.7662 16.889L52.2436 12.6608C52.5116 11.8939 52.083 11.0633 51.2864 10.8054Z" fill="white"/>
</svg>
