<svg width="24" height="24" viewBox="0 0 24 24" fill="none" xmlns="http://www.w3.org/2000/svg">
<path d="M23.9236 15.8533L21.0643 10.2283C20.9443 9.99243 20.7021 9.84375 20.4375 9.84375H18.3281V0.703125C18.3281 0.314758 18.0134 0 17.625 0H6.375C5.98663 0 5.67188 0.314758 5.67188 0.703125V9.84375H3.5625C3.29791 9.84375 3.05566 9.99243 2.93573 10.2283L0.076355 15.8533C0.0265503 15.951 0 16.0701 0 16.1719V23.2969C0 23.6852 0.314758 24 0.703125 24H23.2969C23.6852 24 24 23.6852 24 23.2969V16.1719C24 16.0692 23.9733 15.9507 23.9236 15.8533ZM9.89062 9.84375C9.89062 8.29285 10.8369 7.03125 12 7.03125C13.1631 7.03125 14.1094 8.29285 14.1094 9.84375C14.1094 11.3947 13.1631 12.6562 12 12.6562C10.8369 12.6562 9.89062 11.3947 9.89062 9.84375ZM14.5378 6.91864C13.8704 6.08441 12.9692 5.625 12 5.625C11.0308 5.625 10.1296 6.08441 9.46216 6.91864C8.83154 7.70673 8.48438 8.74567 8.48438 9.84375C8.48438 10.8906 8.8006 11.883 9.37628 12.6562H7.07812V4.14807C8.45361 3.86774 9.53961 2.78174 9.81995 1.40625H14.1802C14.4604 2.78174 15.5464 3.86774 16.9219 4.14807V12.6562H14.6237C15.1994 11.883 15.5156 10.8906 15.5156 9.84375C15.5156 8.74567 15.1685 7.70673 14.5378 6.91864ZM16.9219 2.69165C16.3235 2.47943 15.8487 2.00464 15.6365 1.40625H16.9219V2.69165ZM8.36353 1.40625C8.15131 2.00464 7.67651 2.47943 7.07812 2.69165V1.40625H8.36353ZM3.9939 11.25H5.67188V12.6562H4.96875C4.58038 12.6562 4.26562 12.971 4.26562 13.3594C4.26562 13.7477 4.58038 14.0625 4.96875 14.0625H19.0312C19.4196 14.0625 19.7344 13.7477 19.7344 13.3594C19.7344 12.971 19.4196 12.6562 19.0312 12.6562H18.3281V11.25H20.0061L22.1508 15.4688H1.84918L3.9939 11.25ZM22.5938 22.5938H1.40625V16.875H22.5938V22.5938Z" fill="#D9D9D9"/>
</svg>
