<svg width="21" height="18" viewBox="0 0 21 18" fill="none" xmlns="http://www.w3.org/2000/svg">
<path d="M9.68331 9.74378C10.1052 9.34913 10.1075 8.65236 9.68331 8.25563L1.92093 0.966816C1.48099 0.556496 0.768787 0.556496 0.329963 0.966816C-0.109984 1.37714 -0.109984 2.0436 0.329963 2.45393L7.30027 9.00018L0.32996 15.5455C-0.109986 15.9558 -0.109986 16.6223 0.32996 17.0326C0.769906 17.4429 1.48211 17.4429 1.92093 17.0326L9.68331 9.74378Z" fill="#3C4182"/>
<path d="M10.3317 2.45505L17.302 9.00027L10.3306 15.5455C9.89062 15.9558 9.89062 16.6223 10.3306 17.0326C10.7705 17.4429 11.4827 17.4429 11.9215 17.0326L19.6839 9.74378C20.1058 9.34913 20.1081 8.65236 19.6839 8.25563L11.9204 0.966818C11.4816 0.556498 10.7683 0.556498 10.3295 0.966818C9.89184 1.37826 9.89184 2.04473 10.3317 2.45505Z" fill="#3C4182"/>
</svg>
