<svg width="15" height="12" viewBox="0 0 15 12" fill="none" xmlns="http://www.w3.org/2000/svg">
<path d="M8.75358 7.30735C8.3804 7.55614 7.94692 7.68766 7.5 7.68766C7.05311 7.68766 6.61963 7.55614 6.24645 7.30735L0.099873 3.20951C0.0657715 3.18678 0.0325488 3.16308 0 3.1387V9.85346C0 10.6233 0.624756 11.2343 1.38085 11.2343H13.6191C14.389 11.2343 15 10.6096 15 9.85346V3.13867C14.9674 3.16311 14.9341 3.18687 14.8999 3.20963L8.75358 7.30735Z" fill="#727CF5"/>
<path d="M0.587402 2.47828L6.73397 6.57615C6.96665 6.73128 7.23331 6.80883 7.49997 6.80883C7.76666 6.80883 8.03335 6.73125 8.26603 6.57615L14.4126 2.47828C14.7804 2.23321 15 1.82306 15 1.38038C15 0.619219 14.3808 0 13.6196 0H1.38038C0.619248 2.92969e-05 0 0.619248 0 1.38111C0 1.82306 0.219609 2.23321 0.587402 2.47828Z" fill="#727CF5"/>
</svg>
