<svg width="96" height="16" viewBox="0 0 96 16" fill="none" xmlns="http://www.w3.org/2000/svg">
<path d="M10.9091 3.14813C8.57065 0.47893 4.32501 -0.275267 0.79834 1.35773C2.17571 4.04005 3.20495 7.19456 9.99342 7.37819C10.7881 7.39786 11.6659 7.37819 12.6271 7.3126C12.4909 5.62714 11.8551 4.23024 10.9091 3.14813Z" fill="white"/>
<path d="M9.66043 8.63752C5.57373 8.81459 3.65903 10.1 2.46329 11.6937C1.75947 12.6315 1.30539 13.6677 0.79834 14.6449C5.74779 16.9337 12.1427 14.5203 12.6271 8.68343C11.5297 8.61129 10.5383 8.59817 9.66043 8.63752Z" fill="white"/>
<path d="M16.7832 2.04834H26.7351V4.00269H19.3714V6.85552H24.2755V8.80987H19.3714V11.9972H26.9621V13.9515H16.7832V2.04834Z" fill="white"/>
<path d="M26.7339 5.49219H29.3827L31.6985 11.388L33.8478 5.49219H36.4133L32.8564 13.9523H30.48L26.7339 5.49219Z" fill="white"/>
<path d="M36.4971 9.74258C36.4971 7.15864 38.5631 5.33545 41.5222 5.33545C44.4586 5.33545 46.5322 7.1652 46.5322 9.74258C46.5322 12.2872 44.4207 14.1169 41.4617 14.1169C38.5253 14.1169 36.4971 12.32 36.4971 9.74258ZM43.9288 9.79504V9.7229C43.9288 8.10958 43.0207 7.13896 41.5298 7.13896C40.0162 7.13896 39.108 8.10958 39.108 9.7229V9.79504C39.108 11.3756 39.9935 12.3068 41.4844 12.3068C42.998 12.3068 43.9288 11.369 43.9288 9.79504Z" fill="white"/>
<path d="M48.187 1.88379H50.7753V13.9509H48.187V1.88379Z" fill="white"/>
<path d="M52.7368 10.5617V5.49219H55.3024V10.4371C55.3024 11.5651 55.9229 12.2275 57.0808 12.2275C58.4279 12.2275 58.988 11.2438 58.988 9.78783V5.49219H61.5535V13.9523H58.988V12.7521C58.4733 13.6309 57.5803 14.1163 56.3165 14.1163C54.1066 14.1163 52.7368 12.7521 52.7368 10.5617Z" fill="white"/>
<path d="M64.3859 11.7091V7.28231H63.001V5.49191H64.3859V3.89171L66.8909 2.67188V5.48536H68.8132V7.27575H66.8682V11.4861C66.8682 11.8993 67.0953 12.0764 67.572 12.0961H68.7072V13.9455H66.7244C64.84 13.8602 64.4313 13.1126 64.3859 11.7091Z" fill="white"/>
<path d="M70.4702 2.08154H73.1417V4.25232H70.4702V2.08154ZM70.5081 5.49182H73.0963V13.9519H70.5081V5.49182Z" fill="white"/>
<path d="M74.7515 9.74258C74.7515 7.15864 76.8175 5.33545 79.7766 5.33545C82.713 5.33545 84.7866 7.1652 84.7866 9.74258C84.7866 12.2872 82.6751 14.1169 79.7161 14.1169C76.7797 14.1169 74.7515 12.32 74.7515 9.74258ZM82.1756 9.79504V9.7229C82.1756 8.10958 81.2675 7.13896 79.7766 7.13896C78.263 7.13896 77.3548 8.10958 77.3548 9.7229V9.79504C77.3548 11.3756 78.2403 12.3068 79.7312 12.3068C81.2448 12.3068 82.1756 11.369 82.1756 9.79504Z" fill="white"/>
<path d="M86.4226 5.49222H88.9881V6.86945C89.5028 5.88572 90.4563 5.30859 91.8413 5.30859C93.9754 5.30859 95.2317 6.5481 95.2317 8.87627V13.9523H92.6662V9.00743C92.6662 7.82695 92.1516 7.21704 90.9483 7.21704C89.7298 7.21704 88.9806 8.07617 88.9806 9.6567V13.9589H86.415L86.4226 5.49222Z" fill="white"/>
</svg>
