<svg width="24" height="24" viewBox="0 0 24 24" fill="none" xmlns="http://www.w3.org/2000/svg">
<path d="M12 24C9.62662 24 7.30655 23.2962 5.33316 21.9776C3.35977 20.6591 1.8217 18.7849 0.913448 16.5922C0.00519701 14.3995 -0.232443 11.9867 0.23058 9.65892C0.693603 7.33115 1.83649 5.19295 3.51472 3.51472C5.19295 1.83649 7.33115 0.693606 9.65892 0.230584C11.9867 -0.232438 14.3995 0.00520204 16.5922 0.913454C18.7849 1.82171 20.6591 3.35978 21.9776 5.33317C23.2962 7.30655 24 9.62663 24 12C23.9964 15.1815 22.731 18.2317 20.4813 20.4813C18.2316 22.731 15.1815 23.9964 12 24ZM12 1.60001C9.94308 1.60001 7.93234 2.20996 6.22207 3.35272C4.5118 4.49549 3.17881 6.11974 2.39166 8.0201C1.6045 9.92045 1.39855 12.0115 1.79984 14.0289C2.20112 16.0463 3.19162 17.8994 4.64609 19.3539C6.10056 20.8084 7.95366 21.7989 9.97106 22.2002C11.9885 22.6015 14.0796 22.3955 15.9799 21.6083C17.8803 20.8212 19.5045 19.4882 20.6473 17.7779C21.79 16.0677 22.4 14.0569 22.4 12C22.3969 9.24269 21.3003 6.59919 19.3505 4.64947C17.4008 2.69975 14.7573 1.60306 12 1.60001Z" fill="white"/>
<path d="M5.9996 11.1998C5.84897 11.1997 5.70144 11.1571 5.57397 11.0768C5.4465 10.9966 5.34428 10.882 5.27906 10.7462C5.21385 10.6104 5.18829 10.459 5.20533 10.3093C5.22237 10.1597 5.28131 10.0178 5.37538 9.9002L8.57538 5.9002C8.64084 5.81774 8.72194 5.74901 8.81402 5.69797C8.9061 5.64692 9.00735 5.61455 9.11197 5.60272C9.21659 5.59089 9.32251 5.59984 9.42367 5.62904C9.52482 5.65824 9.61922 5.70712 9.70144 5.77289C9.78366 5.83865 9.85208 5.92 9.90279 6.01227C9.9535 6.10454 9.98549 6.20591 9.99694 6.31057C10.0084 6.41523 9.99904 6.52112 9.96947 6.62217C9.9399 6.72321 9.89066 6.81743 9.8246 6.8994L6.6246 10.8994C6.54973 10.9933 6.45465 11.069 6.34644 11.121C6.23822 11.1731 6.11966 11.2 5.9996 11.1998Z" fill="white" stroke="white" stroke-width="0.5"/>
<path d="M9.1999 18.3996C8.98773 18.3996 8.78424 18.3153 8.63421 18.1653C8.48419 18.0153 8.3999 17.8118 8.3999 17.5996L8.3999 6.39961C8.3999 6.18744 8.48419 5.98395 8.63422 5.83392C8.78425 5.6839 8.98773 5.59961 9.1999 5.59961C9.41208 5.59961 9.61556 5.6839 9.76559 5.83392C9.91562 5.98395 9.9999 6.18744 9.9999 6.39961L9.9999 17.5996C9.9999 17.8118 9.91561 18.0153 9.76559 18.1653C9.61556 18.3153 9.41207 18.3996 9.1999 18.3996Z" fill="white" stroke="white" stroke-width="0.5"/>
<path d="M14.7989 18.4001C14.6483 18.4 14.5008 18.3574 14.3733 18.2771C14.2458 18.1969 14.1436 18.0823 14.0784 17.9465C14.0132 17.8107 13.9876 17.6593 14.0046 17.5096C14.0217 17.36 14.0806 17.2182 14.1747 17.1005L17.3747 13.1005C17.5074 12.9354 17.7002 12.8297 17.9107 12.8066C18.1213 12.7834 18.3324 12.8446 18.4979 12.9769C18.6633 13.1092 18.7696 13.3016 18.7934 13.5121C18.8171 13.7226 18.7565 13.9339 18.6247 14.0997L15.4247 18.0997C15.3497 18.1936 15.2545 18.2694 15.1461 18.3214C15.0378 18.3734 14.9191 18.4003 14.7989 18.4001Z" fill="white" stroke="white" stroke-width="0.5"/>
<path d="M14.8 18.3996C14.6949 18.3996 14.5909 18.379 14.4938 18.3388C14.3967 18.2986 14.3085 18.2396 14.2343 18.1654C14.16 18.0911 14.101 18.0029 14.0608 17.9058C14.0206 17.8087 14 17.7047 14 17.5996L14 6.39961C14 6.18744 14.0843 5.98395 14.2343 5.83392C14.3843 5.6839 14.5878 5.59961 14.8 5.59961C15.0122 5.59961 15.2157 5.6839 15.3657 5.83392C15.5157 5.98395 15.6 6.18744 15.6 6.39961L15.6 17.5996C15.6 17.7047 15.5794 17.8087 15.5392 17.9058C15.499 18.0029 15.44 18.0911 15.3657 18.1654C15.2915 18.2396 15.2033 18.2986 15.1062 18.3388C15.0091 18.379 14.9051 18.3996 14.8 18.3996Z" fill="white" stroke="white" stroke-width="0.5"/>
</svg>
