<svg width="24" height="24" viewBox="0 0 24 24" fill="none" xmlns="http://www.w3.org/2000/svg">
<path d="M19.9754 4.02461C19.6093 3.65846 19.0157 3.65846 18.6496 4.02461L4.02461 18.6496C3.65846 19.0157 3.65846 19.6093 4.02461 19.9754C4.39075 20.3416 4.98432 20.3416 5.35042 19.9754L19.9754 5.35042C20.3416 4.98432 20.3416 4.3907 19.9754 4.02461Z" fill="#D9D9D9"/>
<path d="M10.3125 6.5625H8.4375V4.6875C8.4375 4.16972 8.01778 3.75 7.5 3.75C6.98222 3.75 6.5625 4.16972 6.5625 4.6875V6.5625H4.6875C4.16972 6.5625 3.75 6.98222 3.75 7.5C3.75 8.01778 4.16972 8.4375 4.6875 8.4375H6.5625V10.3125C6.5625 10.8303 6.98222 11.25 7.5 11.25C8.01778 11.25 8.4375 10.8303 8.4375 10.3125V8.4375H10.3125C10.8303 8.4375 11.25 8.01778 11.25 7.5C11.25 6.98222 10.8303 6.5625 10.3125 6.5625Z" fill="#D9D9D9"/>
<path d="M19.3125 15.5625H13.6875C13.1697 15.5625 12.75 15.9822 12.75 16.5C12.75 17.0178 13.1697 17.4375 13.6875 17.4375H19.3125C19.8303 17.4375 20.25 17.0178 20.25 16.5C20.25 15.9822 19.8303 15.5625 19.3125 15.5625Z" fill="#D9D9D9"/>
<path d="M19.3125 0H4.6875C2.10281 0 0 2.10281 0 4.6875V19.3125C0 21.8972 2.10281 24 4.6875 24H19.3125C21.8972 24 24 21.8972 24 19.3125V4.6875C24 2.10281 21.8972 0 19.3125 0ZM22.125 19.3125C22.125 20.8633 20.8633 22.125 19.3125 22.125H4.6875C3.13669 22.125 1.875 20.8633 1.875 19.3125V4.6875C1.875 3.13669 3.13669 1.875 4.6875 1.875H19.3125C20.8633 1.875 22.125 3.13669 22.125 4.6875V19.3125Z" fill="#D9D9D9"/>
</svg>
