<svg width="53" height="39" viewBox="0 0 53 39" fill="none" xmlns="http://www.w3.org/2000/svg">
<path d="M48.5191 8.67773C46.4205 8.67773 44.7133 10.3175 44.7133 12.333C44.7133 13.829 45.6539 15.1181 46.997 15.6831V23.0426C46.997 23.3281 46.7546 23.561 46.4573 23.561L0.376709 23.5669V25.8345C0.376709 27.8946 2.12285 29.5717 4.26774 29.5717H37.1015C39.0171 29.5717 40.6131 28.2357 40.9347 26.4845H46.4573C48.4337 26.4845 50.0409 24.9399 50.0409 23.0426V15.6832C51.384 15.1182 52.3248 13.8291 52.3248 12.333C52.3248 10.3175 50.6176 8.67773 48.5191 8.67773Z" fill="white"/>
<path d="M13.0624 16.6989C13.0624 15.892 13.7432 15.2371 14.5843 15.2371C15.4244 15.2371 16.1062 15.892 16.1062 16.6989V20.6426H24.8278V16.6989C24.8278 15.892 25.5096 15.2371 26.3497 15.2371C27.1908 15.2371 27.8716 15.892 27.8716 16.6989V20.6426H40.9936V4.13954C40.9936 2.07945 39.2474 0.402344 37.1015 0.402344H27.8727V3.62598C27.8727 4.43286 27.1908 5.08772 26.3507 5.08772C25.5106 5.08772 24.8288 4.43286 24.8288 3.62598V0.402344H16.1062V3.48078C16.1062 4.28766 15.4244 4.94252 14.5843 4.94252C13.7442 4.94252 13.0624 4.28766 13.0624 3.48078V0.402344H4.26774C2.12285 0.402344 0.376709 2.07945 0.376709 4.13954V20.6426H13.0624V16.6989ZM31.7299 6.68697H35.8052C36.3694 6.68697 36.8873 6.98673 37.1509 7.46589C37.4145 7.94505 37.3805 8.52477 37.0625 8.97246L36.6207 9.59438C35.5344 11.1243 34.9602 12.9118 34.9602 14.7636C34.9602 15.5709 34.2788 16.2253 33.4383 16.2253C32.5978 16.2253 31.9164 15.5709 31.9164 14.7636C31.9164 12.966 32.3267 11.2146 33.1147 9.61046H31.73C30.8895 9.61046 30.2081 8.95599 30.2081 8.14872C30.2081 7.34144 30.8894 6.68697 31.7299 6.68697ZM18.3644 6.59342H22.4396C23.0038 6.59342 23.5216 6.89317 23.7852 7.37224C24.0489 7.8513 24.0149 8.43112 23.697 8.87871L23.2554 9.50064C22.1689 11.0306 21.5947 12.8181 21.5947 14.6699C21.5947 15.4772 20.9133 16.1317 20.0728 16.1317C19.2323 16.1317 18.5509 15.4772 18.5509 14.6699C18.5509 12.8723 18.9611 11.1208 19.7493 9.51681H18.3645C17.524 9.51681 16.8426 8.86234 16.8426 8.05507C16.8426 7.24779 17.5239 6.59342 18.3644 6.59342ZM10.3315 8.97236L9.8897 9.59428C8.80335 11.124 8.22918 12.9117 8.22918 14.7635C8.22918 15.5708 7.54777 16.2252 6.70727 16.2252C5.86677 16.2252 5.18535 15.5708 5.18535 14.7635C5.18535 12.9659 5.59576 11.2143 6.38361 9.61036H4.99887C4.15836 9.61036 3.47695 8.95589 3.47695 8.14862C3.47695 7.34134 4.15836 6.68687 4.99887 6.68687H9.07415C9.63838 6.68687 10.1562 6.98663 10.4198 7.46579C10.6834 7.94495 10.6494 8.52468 10.3315 8.97236Z" fill="white"/>
<path d="M39.4713 35.2786H35.397V32.4688H5.9733V35.2786H1.89862C1.05812 35.2786 0.376709 35.9331 0.376709 36.7404C0.376709 37.5476 1.05812 38.2021 1.89862 38.2021H39.4713C40.3118 38.2021 40.9932 37.5476 40.9932 36.7404C40.9932 35.9331 40.3119 35.2786 39.4713 35.2786Z" fill="white"/>
</svg>
