<svg width="21" height="24" viewBox="0 0 21 24" fill="none" xmlns="http://www.w3.org/2000/svg">
<path d="M19.5363 8.33426L17.1837 7.478C18.0343 6.77515 18.3975 5.66033 18.1371 4.60095C17.6254 2.51957 15.0876 1.72944 13.4843 3.1468L11.86 4.58267L11.5387 2.42924C11.221 0.309131 8.76647 -0.710867 7.03973 0.552412C6.17634 1.18405 5.71706 2.27291 5.92073 3.3785L3.70271 2.57122C2.61146 2.17396 1.40026 2.73871 1.00299 3.83009L0.042526 6.46901C-0.0900832 6.83337 0.0977914 7.23631 0.462197 7.36887C0.609994 7.42264 11.2782 11.3056 11.4349 11.3626C10.9909 11.3626 1.26756 11.3626 0.839775 11.3626C0.452025 11.3626 0.137682 11.6769 0.137682 12.0647V21.8938C0.137682 23.0551 1.08254 24 2.24391 24H7.86056H10.6689H16.2855C17.4469 24 18.3918 23.0551 18.3918 21.8938V13.8947L18.9349 14.0924C19.2976 14.2245 19.7015 14.0387 19.8348 13.6728L20.7953 11.0339C21.1924 9.94249 20.6277 8.73148 19.5363 8.33426ZM7.15842 22.5959H2.24387C1.85673 22.5959 1.54177 22.2809 1.54177 21.8938V12.7668H7.15842V22.5959ZM9.96674 22.5959H8.56261V12.7668H9.96674V22.5959ZM14.4143 4.19886C15.2287 3.47881 16.5145 3.88274 16.7735 4.93625C17.0498 6.05951 15.9641 7.03348 14.8774 6.63861C13.9531 6.30218 13.52 6.14454 12.5945 5.80765L14.4143 4.19886ZM7.86876 1.68575C8.74626 1.04385 9.98925 1.56472 10.1501 2.63746L10.5101 5.04894C10.2509 4.95462 8.48217 4.3108 8.22731 4.21808C7.14056 3.82231 6.9353 2.36853 7.86876 1.68575ZM8.19951 8.69074L1.60215 6.28948L2.32252 4.31033C2.45494 3.94653 2.85868 3.75838 3.22243 3.8907C3.96071 4.15939 8.93231 5.9689 9.15998 6.05178L8.19951 8.69074ZM10.8385 9.6513L9.519 9.17102L10.4795 6.53211L11.799 7.01239L10.8385 9.6513ZM16.9875 21.8938C16.9875 22.2809 16.6726 22.5959 16.2854 22.5959H11.3709V12.7668H15.2928L16.9876 13.3836V21.8938H16.9875ZM19.4757 10.5536L18.7553 12.5328L12.158 10.1315L13.1185 7.49257L19.0561 9.65365C19.4199 9.78607 19.6081 10.1898 19.4757 10.5536Z" fill="white"/>
</svg>
