<svg width="23" height="23" viewBox="0 0 23 23" fill="none" xmlns="http://www.w3.org/2000/svg">
<path d="M21.3826 10.4769C21.3822 10.4764 21.3817 10.476 21.3813 10.4755L13.2229 2.31738C12.8751 1.96948 12.4128 1.77783 11.921 1.77783C11.4292 1.77783 10.9668 1.96933 10.6189 2.31723L2.4648 10.4712C2.46206 10.474 2.45931 10.4769 2.45656 10.4796C1.74245 11.1978 1.74367 12.3632 2.46007 13.0796C2.78737 13.407 3.21966 13.5967 3.68184 13.6165C3.70061 13.6183 3.71953 13.6193 3.73861 13.6193H4.06377V19.6231C4.06377 20.8112 5.03042 21.7778 6.21877 21.7778H9.4106C9.73409 21.7778 9.99654 21.5155 9.99654 21.1919V16.4849C9.99654 15.9427 10.4375 15.5017 10.9797 15.5017H12.8623C13.4044 15.5017 13.8454 15.9427 13.8454 16.4849V21.1919C13.8454 21.5155 14.1077 21.7778 14.4314 21.7778H17.6232C18.8115 21.7778 19.7782 20.8112 19.7782 19.6231V13.6193H20.0797C20.5713 13.6193 21.0337 13.4278 21.3817 13.0799C22.0989 12.3622 22.0992 11.1949 21.3826 10.4769Z" stroke="white" stroke-width="2"/>
</svg>
