<svg width="15" height="16" viewBox="0 0 15 16" fill="none" xmlns="http://www.w3.org/2000/svg">
<mask id="mask0_1_25761" style="mask-type:alpha" maskUnits="userSpaceOnUse" x="0" y="0" width="15" height="16">
<circle cx="7.5" cy="7.76562" r="7.5" fill="#D9D9D9"/>
</mask>
<g mask="url(#mask0_1_25761)">
<path d="M18.75 0.265625H-3.75V15.2656H18.75V0.265625Z" fill="#FF9933"/>
<path d="M18.75 5.26562H-3.75V10.2656H18.75V5.26562Z" fill="white"/>
<path d="M18.75 10.2656H-3.75V15.2656H18.75V10.2656Z" fill="#128807"/>
<path d="M7.5 9.76562C8.60457 9.76562 9.5 8.87019 9.5 7.76562C9.5 6.66106 8.60457 5.76562 7.5 5.76562C6.39543 5.76562 5.5 6.66106 5.5 7.76562C5.5 8.87019 6.39543 9.76562 7.5 9.76562Z" fill="#000088"/>
<path d="M7.5 9.51562C8.4665 9.51562 9.25 8.73212 9.25 7.76562C9.25 6.79913 8.4665 6.01562 7.5 6.01562C6.5335 6.01562 5.75 6.79913 5.75 7.76562C5.75 8.73212 6.5335 9.51562 7.5 9.51562Z" fill="white"/>
<path d="M7.4999 8.11553C7.6932 8.11553 7.8499 7.95883 7.8499 7.76553C7.8499 7.57223 7.6932 7.41553 7.4999 7.41553C7.3066 7.41553 7.1499 7.57223 7.1499 7.76553C7.1499 7.95883 7.3066 8.11553 7.4999 8.11553Z" fill="#000088"/>
<path d="M9.22358 8.08141C9.27149 8.08772 9.31544 8.05399 9.32175 8.00608C9.32806 7.95817 9.29433 7.91421 9.24642 7.90791C9.19851 7.9016 9.15455 7.93532 9.14825 7.98324C9.14194 8.03115 9.17567 8.0751 9.22358 8.08141Z" fill="#000088"/>
<path d="M7.49994 9.51631L7.55994 8.46631L7.49994 7.96631L7.43994 8.46631L7.49994 9.51631Z" fill="#000088"/>
<path d="M9.08321 8.51694C9.12785 8.53543 9.17904 8.51423 9.19753 8.46959C9.21602 8.42494 9.19482 8.37376 9.15018 8.35526C9.10553 8.33677 9.05434 8.35797 9.03585 8.40262C9.01736 8.44726 9.03856 8.49845 9.08321 8.51694Z" fill="#000088"/>
<path d="M7.04692 9.45656L7.37664 8.45787L7.44809 7.95938L7.26073 8.42681L7.04692 9.45656Z" fill="#000088"/>
<path d="M8.83496 8.9006C8.87329 8.93002 8.92822 8.92279 8.95764 8.88445C8.98706 8.84611 8.97983 8.79118 8.94149 8.76176C8.90315 8.73234 8.84822 8.73958 8.8188 8.77791C8.78939 8.81625 8.79662 8.87118 8.83496 8.9006Z" fill="#000088"/>
<path d="M6.62486 9.28152L7.20182 8.40219L7.39986 7.93918L7.0979 8.34219L6.62486 9.28152Z" fill="#000088"/>
<path d="M8.49597 9.20769C8.52539 9.24603 8.58032 9.25326 8.61866 9.22384C8.657 9.19442 8.66423 9.1395 8.63481 9.10116C8.60539 9.06282 8.55046 9.05559 8.51212 9.085C8.47379 9.11442 8.46655 9.16935 8.49597 9.20769Z" fill="#000088"/>
<path d="M6.26257 9.00319L7.04746 8.30315L7.35859 7.90717L6.96261 8.2183L6.26257 9.00319Z" fill="#000088"/>
<path d="M8.08885 9.41636C8.10734 9.46101 8.15852 9.48221 8.20317 9.46372C8.24782 9.44523 8.26902 9.39404 8.25053 9.34939C8.23203 9.30475 8.18085 9.28355 8.1362 9.30204C8.09156 9.32053 8.07035 9.37172 8.08885 9.41636Z" fill="#000088"/>
<path d="M5.98429 8.64093L6.92362 8.16789L7.32663 7.86593L6.86362 8.06396L5.98429 8.64093Z" fill="#000088"/>
<path d="M7.64163 9.51243C7.64794 9.56034 7.69189 9.59406 7.7398 9.58776C7.78771 9.58145 7.82144 9.53749 7.81513 9.48958C7.80882 9.44167 7.76487 9.40795 7.71696 9.41425C7.66905 9.42056 7.63532 9.46451 7.64163 9.51243Z" fill="#000088"/>
<path d="M5.8096 8.2184L6.83936 8.0046L7.30679 7.81723L6.8083 7.88869L5.8096 8.2184Z" fill="#000088"/>
<path d="M7.18471 9.48871C7.1784 9.53663 7.21212 9.58058 7.26004 9.58689C7.30795 9.59319 7.3519 9.55947 7.35821 9.51156C7.36452 9.46364 7.33079 9.41969 7.28288 9.41338C7.23497 9.40708 7.19101 9.4408 7.18471 9.48871Z" fill="#000088"/>
<path d="M5.7498 7.76508L6.7998 7.82508L7.2998 7.76508L6.7998 7.70508L5.7498 7.76508Z" fill="#000088"/>
<path d="M6.74942 9.34932C6.73092 9.39397 6.75212 9.44515 6.79677 9.46364C6.84142 9.48214 6.8926 9.46094 6.9111 9.41629C6.92959 9.37164 6.90839 9.32046 6.86374 9.30196C6.81909 9.28347 6.76791 9.30467 6.74942 9.34932Z" fill="#000088"/>
<path d="M5.80955 7.31304L6.80824 7.64275L7.30674 7.71421L6.8393 7.52684L5.80955 7.31304Z" fill="#000088"/>
<path d="M6.36527 9.10058C6.33585 9.13892 6.34308 9.19385 6.38142 9.22327C6.41976 9.25268 6.47469 9.24545 6.50411 9.20711C6.53352 9.16878 6.52629 9.11385 6.48795 9.08443C6.44962 9.05501 6.39469 9.06224 6.36527 9.10058Z" fill="#000088"/>
<path d="M5.98459 6.89073L6.86392 7.46769L7.32693 7.66573L6.92392 7.36377L5.98459 6.89073Z" fill="#000088"/>
<path d="M6.05818 8.7616C6.01984 8.79102 6.01261 8.84594 6.04203 8.88428C6.07145 8.92262 6.12637 8.92985 6.16471 8.90043C6.20305 8.87102 6.21028 8.81609 6.18086 8.77775C6.15145 8.73941 6.09652 8.73218 6.05818 8.7616Z" fill="#000088"/>
<path d="M6.26244 6.52795L6.96247 7.31284L7.35845 7.62397L7.04733 7.22799L6.26244 6.52795Z" fill="#000088"/>
<path d="M5.84975 8.35423C5.8051 8.37272 5.7839 8.42391 5.80239 8.46855C5.82089 8.5132 5.87207 8.5344 5.91672 8.51591C5.96137 8.49741 5.98257 8.44623 5.96407 8.40158C5.94558 8.35694 5.8944 8.33573 5.84975 8.35423Z" fill="#000088"/>
<path d="M6.62494 6.24967L7.09798 7.189L7.39994 7.59201L7.2019 7.129L6.62494 6.24967Z" fill="#000088"/>
<path d="M5.75344 7.90725C5.70553 7.91356 5.67181 7.95752 5.67811 8.00543C5.68442 8.05334 5.72837 8.08706 5.77629 8.08076C5.8242 8.07445 5.85792 8.0305 5.85162 7.98258C5.84531 7.93467 5.80136 7.90095 5.75344 7.90725Z" fill="#000088"/>
<path d="M7.04698 6.07498L7.26078 7.10474L7.44815 7.57217L7.37669 7.07368L7.04698 6.07498Z" fill="#000088"/>
<path d="M5.77642 7.44984C5.72851 7.44353 5.68456 7.47726 5.67825 7.52517C5.67194 7.57308 5.70567 7.61704 5.75358 7.62334C5.80149 7.62965 5.84545 7.59593 5.85175 7.54801C5.85806 7.5001 5.82433 7.45615 5.77642 7.44984Z" fill="#000088"/>
<path d="M7.50006 6.01494L7.44006 7.06494L7.50006 7.56494L7.56006 7.06494L7.50006 6.01494Z" fill="#000088"/>
<path d="M5.91679 7.01431C5.87215 6.99582 5.82096 7.01702 5.80247 7.06166C5.78398 7.10631 5.80518 7.15749 5.84982 7.17599C5.89447 7.19448 5.94566 7.17328 5.96415 7.12863C5.98264 7.08399 5.96144 7.0328 5.91679 7.01431Z" fill="#000088"/>
<path d="M7.95308 6.07469L7.62336 7.07338L7.55191 7.57187L7.73927 7.10444L7.95308 6.07469Z" fill="#000088"/>
<path d="M6.1648 6.63065C6.12646 6.60123 6.07153 6.60846 6.04212 6.6468C6.0127 6.68514 6.01993 6.74007 6.05827 6.76949C6.09661 6.79891 6.15153 6.79167 6.18095 6.75334C6.21037 6.715 6.20314 6.66007 6.1648 6.63065Z" fill="#000088"/>
<path d="M8.37489 6.24973L7.79793 7.12906L7.59989 7.59207L7.90186 7.18906L8.37489 6.24973Z" fill="#000088"/>
<path d="M6.50403 6.32356C6.47461 6.28522 6.41968 6.27799 6.38134 6.30741C6.343 6.33683 6.33577 6.39175 6.36519 6.43009C6.39461 6.46843 6.44954 6.47566 6.48788 6.44625C6.52621 6.41683 6.53345 6.3619 6.50403 6.32356Z" fill="#000088"/>
<path d="M8.73743 6.52806L7.95254 7.2281L7.64141 7.62408L8.03739 7.31295L8.73743 6.52806Z" fill="#000088"/>
<path d="M6.91115 6.11489C6.89266 6.07024 6.84148 6.04904 6.79683 6.06753C6.75218 6.08602 6.73098 6.13721 6.74947 6.18186C6.76797 6.2265 6.81915 6.2477 6.8638 6.22921C6.90844 6.21072 6.92965 6.15953 6.91115 6.11489Z" fill="#000088"/>
<path d="M9.01571 6.89032L8.07638 7.36336L7.67337 7.66532L8.13638 7.46729L9.01571 6.89032Z" fill="#000088"/>
<path d="M7.35837 6.01882C7.35206 5.97091 7.30811 5.93719 7.2602 5.94349C7.21229 5.9498 7.17856 5.99376 7.18487 6.04167C7.19118 6.08958 7.23513 6.1233 7.28304 6.117C7.33095 6.11069 7.36468 6.06674 7.35837 6.01882Z" fill="#000088"/>
<path d="M9.1904 7.31285L8.16064 7.52665L7.69321 7.71402L8.1917 7.64256L9.1904 7.31285Z" fill="#000088"/>
<path d="M7.81529 6.04254C7.8216 5.99462 7.78788 5.95067 7.73996 5.94436C7.69205 5.93806 7.6481 5.97178 7.64179 6.01969C7.63548 6.06761 7.66921 6.11156 7.71712 6.11787C7.76503 6.12417 7.80899 6.09045 7.81529 6.04254Z" fill="#000088"/>
<path d="M9.2502 7.76617L8.2002 7.70617L7.7002 7.76617L8.2002 7.82617L9.2502 7.76617Z" fill="#000088"/>
<path d="M8.25058 6.18193C8.26908 6.13728 8.24788 6.0861 8.20323 6.06761C8.15858 6.04911 8.1074 6.07031 8.0889 6.11496C8.07041 6.15961 8.09161 6.21079 8.13626 6.22929C8.18091 6.24778 8.23209 6.22658 8.25058 6.18193Z" fill="#000088"/>
<path d="M9.19045 8.21821L8.19176 7.8885L7.69326 7.81704L8.1607 8.00441L9.19045 8.21821Z" fill="#000088"/>
<path d="M8.63473 6.43116C8.66415 6.39282 8.65692 6.33789 8.61858 6.30847C8.58024 6.27905 8.52531 6.28629 8.49589 6.32462C8.46648 6.36296 8.47371 6.41789 8.51205 6.44731C8.55038 6.47673 8.60531 6.4695 8.63473 6.43116Z" fill="#000088"/>
<path d="M9.01565 8.64101L8.13632 8.06405L7.67331 7.86601L8.07632 8.16797L9.01565 8.64101Z" fill="#000088"/>
<path d="M8.94182 6.77014C8.98016 6.74072 8.98739 6.68579 8.95797 6.64746C8.92855 6.60912 8.87363 6.60189 8.83529 6.6313C8.79695 6.66072 8.78972 6.71565 8.81914 6.75399C8.84855 6.79233 8.90348 6.79956 8.94182 6.77014Z" fill="#000088"/>
<path d="M8.73756 9.00378L8.03753 8.2189L7.64155 7.90777L7.95267 8.30375L8.73756 9.00378Z" fill="#000088"/>
<path d="M9.15025 7.17751C9.1949 7.15902 9.2161 7.10783 9.19761 7.06319C9.17911 7.01854 9.12793 6.99734 9.08328 7.01583C9.03863 7.03432 9.01743 7.08551 9.03593 7.13016C9.05442 7.1748 9.1056 7.196 9.15025 7.17751Z" fill="#000088"/>
<path d="M8.37506 9.28207L7.90202 8.34274L7.60006 7.93973L7.7981 8.40274L8.37506 9.28207Z" fill="#000088"/>
<path d="M9.24656 7.62497C9.29447 7.61866 9.32819 7.57471 9.32189 7.5268C9.31558 7.47889 9.27163 7.44516 9.22371 7.45147C9.1758 7.45778 9.14208 7.50173 9.14838 7.54964C9.15469 7.59755 9.19864 7.63128 9.24656 7.62497Z" fill="#000088"/>
<path d="M7.95302 9.45724L7.73922 8.42749L7.55185 7.96006L7.62331 8.45855L7.95302 9.45724Z" fill="#000088"/>
</g>
</svg>
