<svg width="15" height="16" viewBox="0 0 15 16" fill="none" xmlns="http://www.w3.org/2000/svg">
<path d="M12.8033 2.58145C11.3867 1.16491 9.50332 0.384766 7.5 0.384766C5.49668 0.384766 3.61327 1.16491 2.19668 2.58145C0.780147 3.99804 0 5.88145 0 7.88477C0 9.88809 0.780147 11.7715 2.19668 13.1881C3.61327 14.6046 5.49668 15.3848 7.5 15.3848C9.50332 15.3848 11.3867 14.6046 12.8033 13.1881C14.2199 11.7715 15 9.88809 15 7.88477C15 5.88145 14.2199 3.99804 12.8033 2.58145ZM10.1345 5.29366H8.86409C9.06489 5.55687 9.2081 5.86609 9.27568 6.20233H10.1346V7.08124H9.27583C9.07122 8.09945 8.17014 8.86882 7.09257 8.86882H6.02443L8.94375 11.7881L8.32228 12.4096L4.86554 8.95287V7.98991H7.0926C7.68211 7.98991 8.18411 7.6094 8.36678 7.08124H4.86548V6.20233H8.36672C8.18402 5.67417 7.68205 5.29366 7.09254 5.29366H4.86548V4.41476H10.1345V5.29366Z" fill="#D9D9D9"/>
</svg>
