<svg width="24" height="15" viewBox="0 0 24 15" fill="none" xmlns="http://www.w3.org/2000/svg">
<path d="M4.0226 14.9993C3.84235 14.9993 3.66237 14.9408 3.52723 14.8243C1.25264 12.8638 0 10.2626 0 7.49986C0 4.73766 1.25223 2.13688 3.52594 0.176598C3.7904 -0.0514228 4.22656 -0.057626 4.5003 0.162928C4.77385 0.383405 4.7812 0.747012 4.51669 0.975071C2.49274 2.72001 1.37809 5.0372 1.37809 7.49986C1.37809 9.96306 2.49311 12.2806 4.51784 14.0257C4.78239 14.2537 4.77513 14.6173 4.50158 14.8378C4.36777 14.9457 4.19505 14.9993 4.0226 14.9993Z" fill="#3C46B7"/>
<path d="M6.3163 13.0197C6.13604 13.0197 5.95606 12.9611 5.82092 12.8446C4.1605 11.4136 3.24609 9.51504 3.24609 7.49881C3.24609 5.4832 4.16004 3.58513 5.81959 2.15417C6.08404 1.92608 6.5203 1.91995 6.7939 2.14043C7.0675 2.36091 7.07485 2.72451 6.81034 2.95257C5.40056 4.16818 4.62414 5.78271 4.62414 7.49881C4.62414 9.21546 5.40092 10.8303 6.81145 12.0461C7.07604 12.2741 7.06874 12.6377 6.79518 12.8582C6.66146 12.966 6.48874 13.0197 6.3163 13.0197Z" fill="#3C46B7"/>
<path d="M8.61581 11.0429C8.43555 11.0429 8.25557 10.9844 8.12043 10.8679C7.07423 9.96616 6.49805 8.77031 6.49805 7.50067C6.49805 6.23164 7.07372 5.03625 8.11905 4.1347C8.38341 3.90664 8.81967 3.90032 9.09336 4.12088C9.367 4.34131 9.37445 4.70492 9.10999 4.93302C8.31433 5.61926 7.87614 6.53111 7.87614 7.50071C7.87614 8.47076 8.31469 9.38296 9.11105 10.0694C9.37564 10.2974 9.36834 10.661 9.09474 10.8815C8.96097 10.9893 8.78825 11.0429 8.61581 11.0429Z" fill="#3C46B7"/>
<path d="M19.4949 15C19.3223 15 19.1497 14.9464 19.0159 14.8385C18.7423 14.6179 18.7351 14.2543 18.9997 14.0263C21.0252 12.2811 22.1407 9.96318 22.1407 7.49949C22.1407 5.03629 21.0257 2.71872 19.0009 0.973662C18.7364 0.745642 18.7436 0.382035 19.0172 0.161519C19.2908 -0.059073 19.727 -0.052908 19.9915 0.175074C22.2661 2.13548 23.5188 4.73667 23.5188 7.49949C23.5188 10.2629 22.2656 12.8645 19.9902 14.825C19.855 14.9415 19.675 15 19.4949 15Z" fill="#3C46B7"/>
<path d="M17.2038 13.0218C17.0313 13.0218 16.8586 12.9681 16.7248 12.8602C16.4513 12.6396 16.4442 12.276 16.7087 12.0481C18.12 10.8323 18.8972 9.21704 18.8972 7.4999C18.8972 5.7833 18.1204 4.16839 16.7099 2.95267C16.4453 2.72465 16.4526 2.36104 16.7262 2.14052C16.9998 1.91993 17.436 1.9261 17.7005 2.15408C19.3608 3.58519 20.2753 5.48367 20.2753 7.4999C20.2753 9.51674 19.3604 11.4157 17.6991 12.8469C17.564 12.9633 17.384 13.0218 17.2038 13.0218Z" fill="#3C46B7"/>
<path d="M14.9011 11.0422C14.7285 11.0422 14.5558 10.9885 14.422 10.8805C14.1485 10.6599 14.1414 10.2963 14.4061 10.0684C15.2031 9.3819 15.642 8.46936 15.642 7.49885C15.642 6.52879 15.2035 5.6166 14.4071 4.9302C14.1425 4.70218 14.1498 4.33857 14.4234 4.11806C14.6969 3.89747 15.1332 3.90363 15.3977 4.13165C16.4439 5.03336 17.0201 6.22921 17.0201 7.49885C17.0201 8.76914 16.4434 9.96541 15.3962 10.8672C15.2612 10.9837 15.0812 11.0422 14.9011 11.0422Z" fill="#3C46B7"/>
<path d="M11.7643 9.22203C10.6343 9.22203 9.71509 8.44906 9.71509 7.49896C9.71509 6.54885 10.6344 5.77588 11.7643 5.77588C12.8942 5.77588 13.8134 6.54885 13.8134 7.49896C13.8134 8.44906 12.8942 9.22203 11.7643 9.22203Z" fill="#3C46B7"/>
</svg>
