<svg width="22" height="22" viewBox="0 0 22 22" fill="none" xmlns="http://www.w3.org/2000/svg">
<path d="M11.4309 12.2181C11.1965 11.9619 10.7896 11.9641 10.5587 12.2265L7.22417 16.0156C7.02944 16.2369 7.02944 16.5685 7.22417 16.7898L10.5587 20.5788C10.7889 20.8404 11.1955 20.8446 11.4309 20.5872L14.8972 16.7982C15.102 16.5743 15.102 16.2311 14.8972 16.0072L11.4309 12.2181ZM11.0071 19.3144L8.44456 16.4027L11.0071 13.4909L13.6707 16.4027L11.0071 19.3144Z" fill="white" stroke="white" stroke-width="0.5"/>
<path d="M9.24365 0.777832C7.88604 0.777832 6.8999 1.91096 6.8999 3.29026C6.8999 5.03928 8.51568 6.11951 10.6156 7.95705C10.8366 8.15037 11.1663 8.15034 11.3873 7.95705C13.4873 6.11944 15.103 5.03889 15.103 3.29029C15.103 1.91088 14.1168 0.777832 12.7593 0.777832C12.0663 0.777832 11.4617 1.08232 11.0015 1.66064C10.5412 1.08232 9.93658 0.777832 9.24365 0.777832ZM11.5657 3.05986C11.5787 3.01455 11.8933 1.94971 12.7593 1.94971C13.5204 1.94971 13.9312 2.64041 13.9312 3.29026C13.9312 4.36787 12.7524 5.23346 11.0015 6.74049C9.2176 5.2051 8.07178 4.35861 8.07178 3.29026C8.07178 2.64041 8.48252 1.94971 9.24365 1.94971C10.1065 1.94971 10.4219 3.00674 10.4371 3.05932C10.5971 3.63315 11.4097 3.62838 11.5657 3.05986Z" fill="white" stroke="white" stroke-width="0.5"/>
<path d="M6.85938 12.6528C8.15172 12.6528 9.20313 11.6014 9.20313 10.3091C9.20313 9.2185 8.45442 8.29951 7.44403 8.03916C7.49032 6.73732 6.43598 5.62158 5.10156 5.62158C3.76719 5.62158 2.71281 6.73732 2.7591 8.03916C1.74871 8.29951 1 9.2185 1 10.3091C1 11.6014 2.05141 12.6528 3.34375 12.6528C3.77047 12.6528 4.17063 12.5377 4.51563 12.3376V13.8247H3.92969C3.6061 13.8247 3.34375 14.0871 3.34375 14.4106C3.34375 14.7342 3.6061 14.9966 3.92969 14.9966H6.27344C6.59703 14.9966 6.85938 14.7342 6.85938 14.4106C6.85938 14.0871 6.59703 13.8247 6.27344 13.8247H5.6875V12.3376C6.0325 12.5377 6.43266 12.6528 6.85938 12.6528ZM3.34375 11.481C2.69758 11.481 2.17188 10.9553 2.17188 10.3091C2.17188 9.66877 2.68809 9.14678 3.32621 9.13733L3.3275 9.13748C3.85082 9.21026 4.14785 8.75424 4.00559 8.36248C3.71602 7.56447 4.32074 6.79346 5.10156 6.79346C5.88094 6.79346 6.48766 7.56295 6.19754 8.36252C6.05778 8.74748 6.34422 9.21143 6.87563 9.13752L6.87692 9.13736C7.51504 9.14678 8.03125 9.66881 8.03125 10.3091C8.03125 10.9553 7.50555 11.481 6.85938 11.481C6.21321 11.481 5.6875 10.9553 5.6875 10.3091C5.6875 9.98549 5.42516 9.72315 5.10156 9.72315C4.77797 9.72315 4.51563 9.98549 4.51563 10.3091C4.51563 10.9553 3.98992 11.481 3.34375 11.481Z" fill="white" stroke="white" stroke-width="0.5"/>
<path d="M17.2843 5.61957C17.0634 5.42629 16.7335 5.42629 16.5126 5.61957C14.4126 7.45719 12.7969 8.53774 12.7969 10.2864C12.7969 11.6658 13.7831 12.7988 15.1406 12.7988C15.5696 12.7988 15.9645 12.6818 16.3125 12.4557V13.8242H15.7266C15.403 13.8242 15.1406 14.0865 15.1406 14.4101C15.1406 14.7337 15.403 14.9961 15.7266 14.9961H18.0703C18.3939 14.9961 18.6563 14.7337 18.6563 14.4101C18.6563 14.0865 18.3939 13.8242 18.0703 13.8242H17.4844V12.4557C17.8323 12.6818 18.2273 12.7988 18.6563 12.7988C20.0139 12.7988 21 11.6657 21 10.2864C21 8.53735 19.3842 7.45711 17.2843 5.61957ZM18.6563 11.6269C17.9011 11.6269 17.5653 10.8174 17.4836 10.5821C17.465 9.82547 16.3325 9.8259 16.3132 10.5816C16.2302 10.8207 15.8943 11.6269 15.1406 11.6269C14.3795 11.6269 13.9687 10.9362 13.9687 10.2864C13.9687 9.20875 15.1475 8.34317 16.8984 6.83613C18.6823 8.37153 19.8281 9.21801 19.8281 10.2864C19.8281 10.9363 19.4174 11.6269 18.6563 11.6269Z" fill="white" stroke="white" stroke-width="0.5"/>
</svg>
