<svg width="10" height="15" viewBox="0 0 10 15" fill="none" xmlns="http://www.w3.org/2000/svg">
<path d="M8.66388 3.89023V3.79045C8.66388 2.78516 8.26453 1.82104 7.55368 1.1102C6.84283 0.399349 5.87872 0 4.87343 0C3.86814 0 2.90403 0.399349 2.19318 1.1102C1.48233 1.82104 1.08298 2.78516 1.08298 3.79045V3.89023C0.767152 4.00148 0.493497 4.20776 0.29959 4.48075C0.105683 4.75375 0.00103013 5.08007 0 5.41492V9.74686C0.000470121 10.1776 0.171771 10.5905 0.476318 10.895C0.780864 11.1996 1.19378 11.3709 1.62448 11.3713H8.12238C8.55308 11.3709 8.966 11.1996 9.27054 10.895C9.57509 10.5905 9.74639 10.1776 9.74686 9.74686V5.41492C9.74583 5.08007 9.64118 4.75375 9.44727 4.48075C9.25336 4.20776 8.97971 4.00148 8.66388 3.89023ZM4.87343 1.08298C5.59124 1.08383 6.2794 1.36935 6.78696 1.87691C7.29453 2.38448 7.58005 3.07264 7.58089 3.79045H2.16597C2.16681 3.07264 2.45233 2.38448 2.9599 1.87691C3.46746 1.36935 4.15563 1.08383 4.87343 1.08298ZM5.41492 7.97217V8.66388C5.41492 8.80749 5.35787 8.94522 5.25632 9.04677C5.15477 9.14832 5.01704 9.20537 4.87343 9.20537C4.72982 9.20537 4.59209 9.14832 4.49054 9.04677C4.38899 8.94522 4.33194 8.80749 4.33194 8.66388V7.97217C4.12548 7.85297 3.96412 7.66898 3.87288 7.44872C3.78165 7.22847 3.76565 6.98426 3.82735 6.75398C3.88905 6.52371 4.02501 6.32022 4.21415 6.17509C4.40329 6.02996 4.63503 5.9513 4.87343 5.9513C5.11183 5.9513 5.34357 6.02996 5.53271 6.17509C5.72185 6.32022 5.85781 6.52371 5.91951 6.75398C5.98122 6.98426 5.96521 7.22847 5.87398 7.44872C5.78275 7.66898 5.62139 7.85297 5.41492 7.97217ZM9.28892 13.6431L8.62607 13.7991L9.0811 14.4553C9.32577 14.7916 8.73087 15.2178 8.48964 14.8712L8.06739 14.2213L7.63853 14.8778C7.41114 15.2143 6.77605 14.7721 7.07958 14.449L7.50845 13.8379L6.83266 13.6431C6.41276 13.5291 6.65512 12.8167 7.06666 12.9739L7.74881 13.1946L7.71656 12.5321C7.71028 12.1176 8.42069 12.1141 8.41166 12.5321L8.38576 13.2076L9.07453 12.9739C9.45949 12.821 9.71275 13.5552 9.28892 13.6431ZM6.0984 13.6431L5.43555 13.7991L5.89058 14.4553C6.13525 14.7916 5.54035 15.2178 5.29911 14.8712L4.87687 14.2213L4.44801 14.8778C4.22062 15.2143 3.58553 14.7721 3.88906 14.449L4.31792 13.8379L3.64214 13.6431C3.22224 13.5291 3.4646 12.8167 3.87614 12.9739L4.55829 13.1946L4.52604 12.5321C4.51975 12.1176 5.23017 12.1141 5.22114 12.5321L5.19523 13.2076L5.88401 12.9739C6.26897 12.821 6.52223 13.5552 6.0984 13.6431ZM2.90788 13.6431L2.24503 13.7991L2.70006 14.4553C2.94473 14.7916 2.34983 15.2178 2.10859 14.8712L1.68635 14.2213L1.25749 14.8778C1.0301 15.2143 0.395008 14.7721 0.698541 14.449L1.1274 13.8379L0.451621 13.6431C0.0317207 13.5291 0.274076 12.8167 0.685616 12.9739L1.36777 13.1946L1.33551 12.5321C1.32923 12.1176 2.03964 12.1141 2.03062 12.5321L2.00471 13.2076L2.69349 12.9739C3.07845 12.821 3.33171 13.5552 2.90788 13.6431Z" fill="#727CF5"/>
</svg>
