<svg width="21" height="22" viewBox="0 0 21 22" fill="none" xmlns="http://www.w3.org/2000/svg">
<path d="M17.8421 8.36865H3.10526C1.94256 8.36865 1 9.31121 1 10.4739V18.895C1 20.0577 1.94256 21.0002 3.10526 21.0002H17.8421C19.0048 21.0002 19.9474 20.0577 19.9474 18.895V10.4739C19.9474 9.31121 19.0048 8.36865 17.8421 8.36865Z" stroke="#727CF5" stroke-width="2" stroke-linecap="round" stroke-linejoin="round"/>
<path d="M4.15942 4.15789C4.15942 3.32037 4.49213 2.51715 5.08435 1.92493C5.67657 1.33271 6.47979 1 7.31732 1H13.6331C14.4706 1 15.2739 1.33271 15.8661 1.92493C16.4583 2.51715 16.791 3.32037 16.791 4.15789V8.36842H4.15942V4.15789Z" stroke="#727CF5" stroke-width="2" stroke-linecap="round" stroke-linejoin="round"/>
</svg>
