<svg width="21" height="21" viewBox="0 0 21 21" fill="none" xmlns="http://www.w3.org/2000/svg">
<path d="M12.1037 15.1939C11.9014 15.1939 11.6992 15.1159 11.546 14.9603C11.2432 14.6524 11.2473 14.1575 11.5553 13.8548L14.1843 11.2711C14.4839 10.983 14.4844 10.4678 14.1855 10.1791L11.5583 7.62461C11.2487 7.32357 11.2419 6.82868 11.5431 6.51921C11.8442 6.20978 12.3394 6.20298 12.649 6.50397L15.2804 9.06249C15.2826 9.06476 15.2849 9.06695 15.2872 9.06925C15.7308 9.51126 15.975 10.0991 15.975 10.7245C15.975 11.3499 15.7307 11.9378 15.2871 12.3798C15.2859 12.381 15.2846 12.3823 15.2833 12.3836L12.652 14.9696C12.4998 15.1193 12.3017 15.1939 12.1037 15.1939ZM12.1037 11.4418H1.69902C0.662436 11.4034 0.663218 9.91645 1.69902 9.87839H12.1037C13.1403 9.91681 13.1395 11.4037 12.1037 11.4418ZM18.0093 17.7352C21.8925 14.0105 21.893 7.30946 18.0092 3.58496C12.9143 -1.59767 3.91875 0.423833 1.51057 7.26624C1.36409 7.67241 1.57471 8.12032 1.98104 8.26673C2.38746 8.41318 2.83559 8.20263 2.98204 7.7965C6.28939 -1.00475 19.2528 1.24266 19.3771 10.6602C19.2513 20.0788 6.28892 22.3242 2.98204 13.5235C2.83556 13.1176 2.38742 12.907 1.98108 13.0535C1.57475 13.1999 1.36413 13.6478 1.51061 14.054C2.86836 17.9513 6.79134 20.717 10.9306 20.6658C13.6045 20.6658 16.1185 19.625 18.0093 17.7352Z" fill="white"/>
</svg>
