<svg width="20" height="20" viewBox="0 0 20 20" fill="none" xmlns="http://www.w3.org/2000/svg">
<path d="M13.692 14.7812V16.1875C13.692 17.7384 12.4303 19 10.8793 19H3.81262C2.2617 19 1 17.7384 1 16.1875V3.8125C1 2.26164 2.2617 1 3.81262 1H10.8793C12.4303 1 13.692 2.26164 13.692 3.8125V5.21875C13.692 5.60712 13.3772 5.92188 12.9888 5.92188C12.6004 5.92188 12.2857 5.60712 12.2857 5.21875V3.8125C12.2857 3.03714 11.6547 2.40625 10.8793 2.40625H3.81262C3.03723 2.40625 2.40631 3.03714 2.40631 3.8125V16.1875C2.40631 16.9629 3.03723 17.5938 3.81262 17.5938H10.8793C11.6547 17.5938 12.2857 16.9629 12.2857 16.1875V14.7812C12.2857 14.3929 12.6004 14.0781 12.9888 14.0781C13.3772 14.0781 13.692 14.3929 13.692 14.7812ZM18.4859 8.79219L16.9114 7.21771C16.6367 6.94305 16.1915 6.94305 15.9169 7.21771C15.6423 7.49223 15.6423 7.93745 15.9169 8.21198L17.0369 9.33203H8.59408C8.2057 9.33203 7.89093 9.64679 7.89093 10.0352C7.89093 10.4235 8.2057 10.7383 8.59408 10.7383H17.0369L15.9169 11.8583C15.6423 12.1329 15.6423 12.5781 15.9169 12.8526C16.0543 12.9899 16.2342 13.0586 16.4141 13.0586C16.5941 13.0586 16.774 12.9899 16.9114 12.8526L18.4859 11.2781C19.1714 10.5927 19.1714 9.4776 18.4859 8.79219Z" fill="white" stroke="white" stroke-width="0.5"/>
</svg>
