<svg width="34" height="27" viewBox="0 0 34 27" fill="none" xmlns="http://www.w3.org/2000/svg">
<path d="M6.16309 26.3467V24.5943C6.16309 23.924 5.75476 23.485 5.0538 23.485C4.70332 23.485 4.32221 23.6007 4.0602 23.9818C3.85604 23.662 3.56341 23.485 3.12446 23.485C2.83182 23.485 2.53919 23.5735 2.3078 23.8934V23.5429H1.69531V26.3467H2.3078V24.7985C2.3078 24.3017 2.56981 24.0669 2.97814 24.0669C3.38647 24.0669 3.59063 24.3289 3.59063 24.7985V26.3467H4.20312V24.7985C4.20312 24.3017 4.49575 24.0669 4.87345 24.0669C5.28178 24.0669 5.48594 24.3289 5.48594 24.7985V26.3467H6.16309ZM15.2484 23.5429H14.2548V22.6956H13.6423V23.5429H13.0876V24.0975H13.6423V25.3838C13.6423 26.0269 13.9043 26.4046 14.6052 26.4046C14.8673 26.4046 15.1599 26.3161 15.364 26.2004L15.1871 25.673C15.0102 25.7887 14.806 25.8193 14.6597 25.8193C14.3671 25.8193 14.2514 25.6424 14.2514 25.3531V24.0975H15.245V23.5429H15.2484ZM20.4477 23.4816C20.0972 23.4816 19.8624 23.6586 19.7161 23.89V23.5395H19.1036V26.3433H19.7161V24.7645C19.7161 24.2983 19.9203 24.0329 20.3014 24.0329C20.4171 24.0329 20.5634 24.0635 20.6825 24.0907L20.8594 23.5055C20.7369 23.4816 20.5634 23.4816 20.4477 23.4816ZM12.5908 23.7743C12.2982 23.5701 11.8899 23.4816 11.4509 23.4816C10.75 23.4816 10.2838 23.8321 10.2838 24.3868C10.2838 24.8529 10.6343 25.1183 11.2468 25.2034L11.5394 25.234C11.8592 25.2919 12.0362 25.3804 12.0362 25.5267C12.0362 25.7308 11.8014 25.8771 11.3931 25.8771C10.9847 25.8771 10.6615 25.7308 10.4573 25.5845L10.1647 26.0507C10.4845 26.2855 10.9235 26.4012 11.3624 26.4012C12.1791 26.4012 12.6487 26.0201 12.6487 25.496C12.6487 24.9992 12.2676 24.7372 11.6857 24.6488L11.3931 24.6181C11.1311 24.5875 10.9269 24.5297 10.9269 24.3561C10.9269 24.152 11.1311 24.0363 11.4543 24.0363C11.8048 24.0363 12.1553 24.1826 12.3322 24.2711L12.5908 23.7743ZM28.8865 23.4816C28.536 23.4816 28.3012 23.6586 28.1549 23.89V23.5395H27.5424V26.3433H28.1549V24.7645C28.1549 24.2983 28.359 24.0329 28.7401 24.0329C28.8558 24.0329 29.0022 24.0635 29.1213 24.0907L29.2982 23.5123C29.1791 23.4816 29.0056 23.4816 28.8865 23.4816ZM21.0602 24.9448C21.0602 25.7921 21.6455 26.4046 22.5506 26.4046C22.9589 26.4046 23.2516 26.3161 23.5442 26.0847L23.2516 25.5879C23.0168 25.7649 22.7854 25.8499 22.52 25.8499C22.0232 25.8499 21.6727 25.4994 21.6727 24.9448C21.6727 24.4174 22.0232 24.0669 22.52 24.0397C22.782 24.0397 23.0168 24.1282 23.2516 24.3017L23.5442 23.8049C23.2516 23.5701 22.9589 23.485 22.5506 23.485C21.6455 23.4816 21.0602 24.0975 21.0602 24.9448ZM26.7257 24.9448V23.5429H26.1132V23.8934C25.9091 23.6314 25.6164 23.485 25.2353 23.485C24.4459 23.485 23.8334 24.0975 23.8334 24.9448C23.8334 25.7921 24.4459 26.4046 25.2353 26.4046C25.6437 26.4046 25.9363 26.2583 26.1132 25.9962V26.3467H26.7257V24.9448ZM24.4765 24.9448C24.4765 24.448 24.7964 24.0397 25.3238 24.0397C25.8206 24.0397 26.1711 24.4208 26.1711 24.9448C26.1711 25.4416 25.8206 25.8499 25.3238 25.8499C24.7998 25.8193 24.4765 25.4382 24.4765 24.9448ZM17.1471 23.4816C16.3304 23.4816 15.7452 24.0669 15.7452 24.9414C15.7452 25.8193 16.3304 26.4012 17.1777 26.4012C17.586 26.4012 17.9944 26.2855 18.3176 26.0201L18.025 25.5811C17.7902 25.7581 17.4976 25.8737 17.2083 25.8737C16.8272 25.8737 16.4495 25.6968 16.361 25.2034H18.4333C18.4333 25.1149 18.4333 25.0571 18.4333 24.9686C18.4605 24.0669 17.9331 23.4816 17.1471 23.4816ZM17.1471 24.0091C17.5282 24.0091 17.7902 24.2438 17.848 24.6794H16.3883C16.4461 24.3017 16.7081 24.0091 17.1471 24.0091ZM32.364 24.9448V22.4336H31.7516V23.8934C31.5474 23.6314 31.2548 23.485 30.8737 23.485C30.0842 23.485 29.4717 24.0975 29.4717 24.9448C29.4717 25.7921 30.0842 26.4046 30.8737 26.4046C31.282 26.4046 31.5746 26.2583 31.7516 25.9962V26.3467H32.364V24.9448ZM30.1148 24.9448C30.1148 24.448 30.4347 24.0397 30.9621 24.0397C31.4589 24.0397 31.8094 24.4208 31.8094 24.9448C31.8094 25.4416 31.4589 25.8499 30.9621 25.8499C30.4347 25.8193 30.1148 25.4382 30.1148 24.9448ZM9.61004 24.9448V23.5429H8.99755V23.8934C8.79339 23.6314 8.50076 23.485 8.11965 23.485C7.33022 23.485 6.71773 24.0975 6.71773 24.9448C6.71773 25.7921 7.33022 26.4046 8.11965 26.4046C8.52798 26.4046 8.82061 26.2583 8.99755 25.9962V26.3467H9.61004V24.9448ZM7.33362 24.9448C7.33362 24.448 7.65348 24.0397 8.1809 24.0397C8.6777 24.0397 9.02818 24.4208 9.02818 24.9448C9.02818 25.4416 8.6777 25.8499 8.1809 25.8499C7.65348 25.8193 7.33362 25.4382 7.33362 24.9448Z" fill="black"/>
<path d="M21.5877 2.25H12.3867V18.7804H21.5877V2.25Z" fill="#FF5A00"/>
<path d="M12.9984 10.5144C12.9984 7.15592 14.5773 4.17514 17 2.2492C15.217 0.847278 12.9678 0 10.5144 0C4.70256 0 0 4.70256 0 10.5144C0 16.3263 4.70256 21.0288 10.5144 21.0288C12.9678 21.0288 15.217 20.1815 17 18.7796C14.5739 16.8809 12.9984 13.8729 12.9984 10.5144Z" fill="#EB001B"/>
<path d="M34 10.5144C34 16.3263 29.2974 21.0288 23.4856 21.0288C21.0322 21.0288 18.783 20.1815 17 18.7796C19.4534 16.8503 21.0016 13.8729 21.0016 10.5144C21.0016 7.15592 19.4227 4.17514 17 2.2492C18.7796 0.847278 21.0288 0 23.4822 0C29.2974 0 34 4.73319 34 10.5144Z" fill="#F79E1B"/>
</svg>
