<svg width="36" height="25" viewBox="0 0 36 25" fill="none" xmlns="http://www.w3.org/2000/svg">
<path d="M33.8555 11.1113H1.58984C0.834746 11.1113 0.222656 11.7331 0.222656 12.5002C0.222656 13.2673 0.834746 13.8891 1.58984 13.8891H33.8555C34.6106 13.8891 35.2227 13.2673 35.2227 12.5002C35.2227 11.7331 34.6106 11.1113 33.8555 11.1113Z" fill="white"/>
<path d="M33.8555 0H1.58984C0.834746 0 0.222656 0.621806 0.222656 1.38889C0.222656 2.15597 0.834746 2.77778 1.58984 2.77778H33.8555C34.6106 2.77778 35.2227 2.15597 35.2227 1.38889C35.2227 0.621806 34.6106 0 33.8555 0Z" fill="white"/>
<path d="M33.8555 22.2227H1.58984C0.834746 22.2227 0.222656 22.8445 0.222656 23.6115C0.222656 24.3786 0.834746 25.0004 1.58984 25.0004H33.8555C34.6106 25.0004 35.2227 24.3786 35.2227 23.6115C35.2227 22.8445 34.6106 22.2227 33.8555 22.2227Z" fill="white"/>
</svg>
