<svg width="53" height="51" viewBox="0 0 53 51" fill="none" xmlns="http://www.w3.org/2000/svg">
<path d="M47.4134 20.7988C45.3086 20.7988 43.5182 22.115 42.881 23.9368H30.7419V26.8665H42.8809C44.6677 31.7385 52.089 30.6299 52.1955 25.4016C52.1956 22.8637 50.0503 20.7988 47.4134 20.7988Z" fill="white"/>
<path d="M40.8927 33.351C40.1283 33.351 39.4058 33.5254 38.7644 33.8337L35.4483 30.642C35.163 30.3673 34.7758 30.2129 34.3722 30.2129H30.7419V33.1426H33.7418L36.6121 35.9052C35.012 38.8845 37.3926 42.6015 40.8928 42.5566C47.228 42.3255 47.2268 33.5815 40.8927 33.351Z" fill="white"/>
<path d="M8.59222 26.8672H0.246826C0.413831 29.6679 1.05781 32.3817 2.14304 34.9206H9.56787C9.00953 32.3587 8.67856 29.648 8.59222 26.8672Z" fill="white"/>
<path d="M9.56787 15.8848H2.14304C1.05781 18.4237 0.413831 21.1375 0.246826 23.9382H8.59222C8.67856 21.1574 9.00953 18.4467 9.56787 15.8848Z" fill="white"/>
<path d="M15.9427 2.41211C8.61652 5.43438 4.95733 10.7528 3.63965 12.9548H10.3258C11.3576 9.52833 13.108 5.55001 15.9427 2.41211Z" fill="white"/>
<path d="M3.63965 37.8496C4.95733 40.0516 8.61652 45.37 15.9427 48.3924C13.1075 45.2539 11.3576 41.2762 10.3258 37.8496H3.63965Z" fill="white"/>
<path d="M26.1778 0.402344C20.3333 0.402344 15.8305 5.9004 13.5059 12.9544H27.6997V1.86719C27.6997 1.0582 27.0183 0.402344 26.1778 0.402344Z" fill="white"/>
<path d="M26.1778 50.4017C27.0183 50.4017 27.6997 49.7458 27.6997 48.9368V37.8496H13.5059C15.8338 44.9136 20.3412 50.4017 26.1778 50.4017Z" fill="white"/>
<path d="M11.6389 23.9382H27.6989V15.8848H12.6824C12.0857 18.4227 11.7308 21.1378 11.6389 23.9382Z" fill="white"/>
<path d="M35.4483 20.1613L38.7644 16.9696C41.8594 18.5096 45.7218 16.2183 45.6749 12.8493C45.6749 10.3113 43.5296 8.24649 40.8927 8.24649C37.3928 8.20177 35.0115 11.919 36.6121 14.898L33.7418 17.6606H30.7419V20.5903H34.3722C34.7759 20.5903 35.163 20.436 35.4483 20.1613Z" fill="white"/>
<path d="M12.6824 34.9206H27.6989V26.8672H11.6389C11.7308 29.6676 12.0857 32.3827 12.6824 34.9206Z" fill="white"/>
</svg>
