<svg width="22" height="22" viewBox="0 0 22 22" fill="none" xmlns="http://www.w3.org/2000/svg">
<path d="M11.0624 21.8754C8.14093 21.8754 5.39416 20.7376 3.32832 18.6718C1.26248 16.606 0.124756 13.8592 0.124756 10.9377C0.124756 8.01617 1.26248 5.2694 3.32832 3.20356C5.39416 1.13773 8.14093 0 11.0624 0C13.9839 0 16.7307 1.13773 18.7966 3.20356C20.8624 5.2694 22.0001 8.01617 22.0001 10.9377C22.0001 13.8592 20.8624 16.606 18.7966 18.6718C16.7307 20.7376 13.9839 21.8754 11.0624 21.8754ZM11.0624 1.70901C5.97379 1.70901 1.83377 5.84903 1.83377 10.9377C1.83377 16.0263 5.97379 20.1664 11.0624 20.1664C16.1511 20.1664 20.2911 16.0263 20.2911 10.9377C20.2911 5.84903 16.1511 1.70901 11.0624 1.70901ZM15.5181 10.9377L9.60978 5.0294L8.40129 6.2379L13.1011 10.9377L8.40129 15.6375L9.60978 16.846L15.5181 10.9377Z" fill="white"/>
</svg>
