<svg width="15" height="16" viewBox="0 0 15 16" fill="none" xmlns="http://www.w3.org/2000/svg">
<mask id="mask0_1_25873" style="mask-type:alpha" maskUnits="userSpaceOnUse" x="0" y="0" width="15" height="16">
<circle cx="7.5" cy="7.76562" r="7.5" fill="#D9D9D9"/>
</mask>
<g mask="url(#mask0_1_25873)">
<path d="M15.75 0.265625H-6.75V15.2656H15.75V0.265625Z" fill="white"/>
<path d="M15.75 0.265625H-1.125V15.2656H15.75V0.265625Z" fill="#01411C"/>
<path d="M7.3125 12.2656C9.79778 12.2656 11.8125 10.2509 11.8125 7.76562C11.8125 5.28034 9.79778 3.26562 7.3125 3.26562C4.82722 3.26562 2.8125 5.28034 2.8125 7.76562C2.8125 10.2509 4.82722 12.2656 7.3125 12.2656Z" fill="white"/>
<path d="M11.2032 9.8265C12.906 8.31297 13.0593 5.70567 11.5458 4.00294C10.0323 2.30021 7.42495 2.14684 5.72222 3.66038C4.01949 5.17391 3.86612 7.78121 5.37966 9.48394C6.8932 11.1867 9.5005 11.34 11.2032 9.8265Z" fill="#01411C"/>
<path d="M8.95342 4.39832L10.849 6.5308L8.06199 5.91976L10.6759 4.77596L9.2335 7.23771L8.95342 4.39832Z" fill="white"/>
</g>
</svg>
