<svg width="50" height="16" viewBox="0 0 50 16" fill="none" xmlns="http://www.w3.org/2000/svg">
<path d="M49.8313 4.62237C49.3774 3.32473 48.1406 2.3929 46.6878 2.3929H46.6574C45.713 2.3929 44.8619 2.78596 44.256 3.41695C43.6491 2.78596 42.798 2.3929 41.8546 2.3929H41.8242C40.9941 2.3929 40.2352 2.69685 39.6524 3.2V2.94423C39.6325 2.68951 39.4229 2.48934 39.164 2.48934H36.9356C36.663 2.48934 36.4429 2.70945 36.4429 2.98301V15.0842C36.4429 15.3578 36.663 15.5779 36.9356 15.5779H39.164C39.4124 15.5779 39.6168 15.3924 39.6493 15.1523L39.6482 6.46506C39.648 6.43601 39.6494 6.40696 39.6524 6.37806C39.6881 5.99023 39.9721 5.6716 40.4208 5.63175H40.8316C41.0192 5.64851 41.1775 5.71456 41.3022 5.81413C41.4961 5.96821 41.6041 6.20511 41.6041 6.46506L41.6125 15.1094C41.6125 15.3829 41.8336 15.6041 42.1051 15.6041H44.3335C44.5966 15.6041 44.8105 15.3945 44.823 15.1335L44.822 6.45353C44.8209 6.16841 44.953 5.91057 45.1847 5.75753C45.2989 5.68414 45.4362 5.6349 45.5945 5.62023H46.0054C46.4876 5.66215 46.7789 6.02797 46.7779 6.45353L46.7863 15.0863C46.7863 15.3599 47.0075 15.58 47.2789 15.58H49.5073C49.7788 15.58 50 15.3599 50 15.0863V5.80156C50 5.16845 49.9288 4.89908 49.8313 4.62237ZM34.7453 2.52087H33.4707V0.449663C33.4707 0.20124 33.2694 0 33.021 0C32.9917 0 32.9634 0.0041597 32.9361 0.00941874C31.5232 0.397251 31.8062 2.35421 29.2266 2.52087H28.9761C28.9384 2.52087 28.9027 2.52609 28.8681 2.53343C28.648 2.58273 28.4824 2.77871 28.4824 3.01352V5.24193C28.4824 5.51341 28.7036 5.73456 28.9761 5.73456H30.3209L30.3188 15.1839C30.3188 15.4533 30.5368 15.6713 30.8062 15.6713H33.0095C33.2778 15.6713 33.4959 15.4533 33.4959 15.1839L33.4969 5.73456H34.7453C35.0167 5.73456 35.2379 5.51341 35.2379 5.24193V3.01352C35.2379 2.74204 35.0167 2.52087 34.7453 2.52087Z" fill="#00BAF2"/>
<path d="M26.7277 2.52007H24.4993C24.2278 2.52007 24.0077 2.74124 24.0077 3.01269V7.62051C24.0024 7.9056 23.7718 8.13411 23.4857 8.13411H22.5528C22.2635 8.13411 22.0298 7.90141 22.0298 7.6121L22.0214 3.01272C22.0214 2.74124 21.8002 2.5201 21.5287 2.5201H19.3003C19.0278 2.5201 18.8077 2.74124 18.8077 3.01272V8.06283C18.8077 9.98099 20.1755 11.3489 22.0947 11.3489C22.0947 11.3489 23.5349 11.3489 23.579 11.3573C23.8389 11.3866 24.0412 11.6046 24.0412 11.8729C24.0412 12.1381 23.8431 12.3551 23.5863 12.3876C23.5737 12.3897 23.5622 12.3928 23.5486 12.3949L20.2898 12.4065C20.0173 12.4065 19.7972 12.6276 19.7972 12.8991V15.1265C19.7972 15.399 20.0173 15.6191 20.2898 15.6191H23.9333C25.8535 15.6191 27.2203 14.2523 27.2203 12.3331V3.01272C27.2203 2.74124 27.0002 2.52007 26.7277 2.52007ZM5.15808 6.60325V7.97848C5.15808 8.26669 4.92434 8.5015 4.6361 8.5015L3.2221 8.50254V5.74689H4.6361C4.92434 5.74689 5.15808 5.97957 5.15808 6.26887V6.60325ZM5.35409 2.51953H0.483208C0.215918 2.51953 0 2.73652 0 3.00274V5.18611C0 5.19029 0.00103992 5.19448 0.00103992 5.19867C0.00103992 5.20916 0 5.21965 0 5.22907V15.1113C0 15.3796 0.20124 15.5987 0.450733 15.605H2.72104C2.99252 15.605 3.21366 15.3849 3.21366 15.1124L3.22207 11.7257H5.35406C7.13804 11.7257 8.3812 10.4878 8.3812 8.69644V5.55299C8.3812 3.76165 7.13807 2.51953 5.35409 2.51953ZM14.4041 11.8349V12.1829C14.4041 12.2112 14.4 12.2385 14.3958 12.2647C14.3906 12.2892 14.3835 12.3134 14.3748 12.337C14.3056 12.532 14.1107 12.6734 13.879 12.6734H12.9514C12.6621 12.6734 12.4263 12.4533 12.4263 12.1829V11.7626C12.4263 11.7574 12.4252 11.7521 12.4252 11.7469L12.4263 10.6285V10.2783L12.4273 10.2752C12.4283 10.0058 12.6621 9.78783 12.9514 9.78783H13.879C14.1694 9.78783 14.4042 10.0069 14.4042 10.2784L14.4041 11.8349ZM14.0499 2.53234H10.9578C10.6842 2.53234 10.4631 2.73988 10.4631 2.99457V3.86142C10.4631 3.86665 10.4641 3.87295 10.4641 3.87818C10.4641 3.88448 10.463 3.89075 10.463 3.89704V5.08464C10.463 5.35404 10.6978 5.57415 10.9872 5.57415H13.9314C14.1642 5.61084 14.3486 5.78064 14.3748 6.04583V6.33302C14.3486 6.58564 14.1663 6.77009 13.944 6.79106H12.486C10.5469 6.79106 9.16542 8.07929 9.16542 9.88843V12.4795C9.16542 14.2782 10.353 15.558 12.2785 15.558H16.3192C17.0445 15.558 17.6326 15.0088 17.6326 14.3327V5.87706C17.6326 3.82684 16.576 2.53234 14.0499 2.53234Z" fill="#1F336B"/>
</svg>
