<svg width="20" height="20" viewBox="0 0 20 20" fill="none" xmlns="http://www.w3.org/2000/svg">
<path d="M16.1573 7.69381H14.6194C14.6188 7.08196 14.3756 6.49534 13.9431 6.0627C13.5106 5.63006 12.9241 5.38673 12.3125 5.38612V3.84766C13.3318 3.84888 14.3091 4.25449 15.0299 4.97552C15.7506 5.69655 16.1561 6.67412 16.1573 7.69381Z" fill="#727CF5"/>
<path d="M19.231 7.69231H17.6931C17.6914 6.26472 17.1238 4.89607 16.1147 3.88661C15.1056 2.87715 13.7374 2.30932 12.3103 2.30769V0.769231C14.1451 0.771268 15.9043 1.50131 17.2017 2.7992C18.4992 4.09709 19.229 5.85682 19.231 7.69231ZM17.6931 20H17.5623C2.45211 19.1308 0.306683 6.37692 0.00678574 2.48462C-0.0400858 1.87442 0.15726 1.27059 0.555416 0.805942C0.953571 0.341293 1.51993 0.0538805 2.12991 0.00692385C2.19091 0.00230846 2.25217 7.21224e-07 2.31369 7.21224e-07H6.36615C6.67417 -0.000297558 6.97518 0.0919312 7.23019 0.264741C7.4852 0.43755 7.68247 0.682977 7.79643 0.969232L8.96527 3.84615C9.07781 4.12581 9.10573 4.43237 9.04558 4.72776C8.98543 5.02316 8.83985 5.29436 8.62692 5.50769L6.98902 7.16154C7.24383 8.61641 7.93976 9.95768 8.98244 11.0035C10.0251 12.0493 11.3641 12.749 12.8178 13.0077L14.4865 11.3538C14.7029 11.1432 14.9766 11.001 15.2733 10.9449C15.5701 10.8888 15.8767 10.9213 16.1551 11.0385L19.0541 12.2C19.336 12.3176 19.5764 12.5165 19.7449 12.7713C19.9133 13.0261 20.0021 13.3253 20 13.6308V17.6923C20 18.3043 19.7569 18.8913 19.3243 19.3241C18.8917 19.7569 18.3049 20 17.6931 20ZM2.31369 1.53846C2.21271 1.53816 2.11265 1.55776 2.01924 1.59613C1.92583 1.63451 1.84089 1.69092 1.76927 1.76213C1.69765 1.83335 1.64076 1.91798 1.60183 2.01119C1.56291 2.1044 1.54272 2.20437 1.54242 2.30539C1.54242 2.32692 1.54318 2.34821 1.54472 2.36923C1.89845 6.92308 4.1669 17.6923 17.6469 18.4615C17.8504 18.4737 18.0505 18.4046 18.203 18.2693C18.3556 18.134 18.4482 17.9436 18.4605 17.74L18.462 17.6923V13.6308L15.563 12.4692L13.3561 14.6615L12.987 14.6154C6.29695 13.7769 5.38956 7.08462 5.38956 7.01539L5.34343 6.64615L7.5273 4.43846L6.37384 1.53846H2.31369Z" fill="#727CF5"/>
</svg>
