<svg width="15" height="12" viewBox="0 0 15 12" fill="none" xmlns="http://www.w3.org/2000/svg">
<path d="M14.4153 1.3935C13.8739 0.749853 12.8742 0.487305 10.965 0.487305H4.03481C2.08195 0.487305 1.06534 0.766789 0.525919 1.45205C0 2.12018 0 3.10461 0 4.4671V7.06398C0 9.70355 0.624 11.0437 4.03481 11.0437H10.9651C12.6207 11.0437 13.5381 10.812 14.1316 10.244C14.7403 9.66155 15 8.7105 15 7.06398V4.4671C15 3.03024 14.9593 2.04 14.4153 1.3935ZM9.63005 6.12406L6.48305 7.76879C6.41269 7.80556 6.33576 7.82381 6.25892 7.82381C6.17192 7.82381 6.08511 7.80038 6.00823 7.75384C5.86345 7.66611 5.77505 7.50919 5.77505 7.33993V4.06103C5.77505 3.89206 5.86321 3.73529 6.00769 3.64751C6.15223 3.55974 6.33198 3.55374 6.48194 3.63164L9.62893 5.26577C9.78905 5.3489 9.8896 5.51419 9.88984 5.69453C9.89003 5.87501 9.78992 6.04055 9.63005 6.12406Z" fill="#D9D9D9"/>
</svg>
