<svg width="25" height="24" viewBox="0 0 25 24" fill="none" xmlns="http://www.w3.org/2000/svg">
<path d="M24.4062 1.29327L23.4293 0.316406L19.9102 3.83513L20.8875 4.81246L24.4062 1.29327Z" fill="white"/>
<path d="M14.9643 12.9515C14.8105 12.7976 14.6059 12.7129 14.3884 12.7129C14.1708 12.7129 13.9663 12.7976 13.8124 12.9515C13.4948 13.2691 13.4948 13.7858 13.8124 14.1034C14.13 14.421 14.6467 14.421 14.9643 14.1034C15.2819 13.7859 15.2819 13.2691 14.9643 12.9515Z" fill="white"/>
<path d="M16.8941 7.01758C16.6861 7.01758 16.4782 7.0967 16.3199 7.255C16.1665 7.40837 16.082 7.61231 16.082 7.82919C16.082 8.04611 16.1665 8.25005 16.3199 8.40342C16.6365 8.72006 17.1517 8.72006 17.4683 8.40342C17.7849 8.08678 17.7849 7.57164 17.4683 7.255C17.31 7.09675 17.102 7.01758 16.8941 7.01758Z" fill="white"/>
<path d="M7.51119 14.0159C7.35736 13.862 7.15282 13.7773 6.93525 13.7773C6.71768 13.7773 6.51314 13.8621 6.35926 14.0159C6.0417 14.3335 6.0417 14.8503 6.35926 15.1679C6.67682 15.4855 7.19358 15.4854 7.51119 15.1679C7.82879 14.8503 7.82879 14.3335 7.51119 14.0159Z" fill="white"/>
<path d="M18.8555 6.84504C19.2668 7.66715 19.13 8.6956 18.4456 9.38C18.0182 9.80741 17.4563 10.0216 16.8944 10.0216C16.3325 10.0216 15.7711 9.80787 15.3432 9.38C14.9287 8.96549 14.7007 8.41465 14.7007 7.82881C14.7007 7.24297 14.9287 6.69167 15.3432 6.27762C16.0276 5.59322 17.0561 5.45643 17.8782 5.86772L19.9111 3.83478L18.8127 2.73633H12.4647L0.826172 14.3748L10.3484 23.8971L21.9869 12.2585V5.91055L20.8885 4.8121L18.8555 6.84504ZM8.49 16.1457C8.06213 16.5736 7.49978 16.7878 6.93743 16.7878C6.37462 16.7878 5.81227 16.5736 5.3844 16.1457C4.52775 15.2891 4.52775 13.8959 5.3844 13.0397C5.79891 12.6247 6.35067 12.3963 6.93743 12.3963C7.52373 12.3963 8.07549 12.6247 8.49 13.0397C8.90497 13.4546 9.13341 14.0059 9.13341 14.5927C9.13341 15.1795 8.90497 15.7308 8.49 16.1457ZM10.3028 17.8696L9.64648 10.3716L11.0231 10.2509L11.679 17.7494L10.3028 17.8696ZM15.9415 15.0809C15.5132 15.5092 14.9508 15.7234 14.3885 15.7234C13.8261 15.7234 13.2638 15.5092 12.8354 15.0809C12.4209 14.6664 12.1925 14.1146 12.1925 13.5283C12.1925 12.9416 12.4209 12.3898 12.8354 11.9753C13.2504 11.5603 13.8017 11.3319 14.3885 11.3319C14.9752 11.3319 15.5265 11.5603 15.9415 11.9753C16.3694 12.4032 16.5835 12.966 16.5835 13.5279C16.5835 14.0907 16.3694 14.6526 15.9415 15.0809Z" fill="white"/>
</svg>
