<svg width="21" height="22" viewBox="0 0 21 22" fill="none" xmlns="http://www.w3.org/2000/svg">
<path d="M20.512 19.6726L15.631 14.7917C16.8442 13.3328 17.5752 11.4593 17.5752 9.41797C17.5752 4.77628 13.799 1 9.15751 1C4.51593 1 0.739746 4.77628 0.739746 9.41797C0.739746 14.0593 4.51593 17.8353 9.15751 17.8353C11.1987 17.8353 13.0723 17.1045 14.5313 15.8912L19.4124 20.7722C19.5641 20.9241 19.7632 21 19.9622 21C20.1611 21 20.3602 20.9241 20.5121 20.7722C20.8157 20.4685 20.8157 19.9763 20.512 19.6726ZM2.29492 9.41797C2.29492 5.63381 5.37345 2.55518 9.15751 2.55518C12.9415 2.55518 16.0199 5.63381 16.0199 9.41797C16.0199 13.2018 12.9415 16.2801 9.15751 16.2801C5.37345 16.2801 2.29492 13.2018 2.29492 9.41797Z" fill="white" stroke="white" stroke-width="0.5"/>
</svg>
