<svg width="45" height="51" viewBox="0 0 45 51" fill="none" xmlns="http://www.w3.org/2000/svg">
<path d="M22.4947 15.877C17.0368 15.877 12.5967 20.1506 12.5967 25.4034C12.5967 30.6566 17.0368 34.9302 22.4947 34.9302C27.9521 34.9302 32.3922 30.6566 32.3922 25.4034C32.3922 20.1506 27.9521 15.877 22.4947 15.877ZM28.3711 23.6093L21.2803 30.4342C20.9827 30.7207 20.5923 30.8641 20.2023 30.8641C19.8123 30.8641 19.4223 30.7211 19.1247 30.4342L16.4149 27.8261C15.8196 27.2535 15.8196 26.3246 16.4149 25.7517C17.0098 25.1787 17.9749 25.1787 18.5702 25.7517L20.2023 27.3225L26.2158 21.5349C26.8107 20.9619 27.7758 20.9619 28.3711 21.5349C28.9664 22.1075 28.9664 23.0364 28.3711 23.6093Z" fill="white"/>
<path d="M44.5617 13.9686L44.5601 13.9297C44.5375 13.4494 44.5225 12.9413 44.5133 12.376C44.4709 9.61911 42.194 7.33869 39.3293 7.18458C33.3566 6.86376 28.7362 4.98922 24.7883 1.28554L24.7546 1.25464C23.467 0.118245 21.5245 0.118245 20.2365 1.25464L20.2028 1.28554C16.2549 4.98922 11.6345 6.86376 5.66177 7.18496C2.79748 7.33869 0.520162 9.61911 0.477755 12.3764C0.469036 12.9379 0.453579 13.446 0.430988 13.9297L0.42861 14.0201C0.312485 19.8822 0.16822 27.1777 2.70395 33.7997C4.09824 37.4412 6.2099 40.6066 8.97986 43.2086C12.1347 46.1719 16.2668 48.5244 21.2614 50.2005C21.4239 50.2551 21.5927 50.2993 21.7647 50.3325C22.0073 50.3791 22.2514 50.4023 22.4956 50.4023C22.7397 50.4023 22.9842 50.3791 23.2264 50.3325C23.3984 50.2993 23.5684 50.2547 23.7317 50.1998C28.7203 48.5206 32.8481 46.1669 36.0001 43.204C38.7689 40.6013 40.8806 37.4351 42.2761 33.7928C44.8213 27.151 44.6774 19.8417 44.5617 13.9686ZM22.4948 37.8638C15.356 37.8638 9.54859 32.2742 9.54859 25.4032C9.54859 18.5321 15.356 12.9425 22.4948 12.9425C29.6331 12.9425 35.4409 18.5321 35.4409 25.4032C35.4409 32.2742 29.6331 37.8638 22.4948 37.8638Z" fill="white"/>
</svg>
