<svg width="50" height="18" viewBox="0 0 50 18" fill="none" xmlns="http://www.w3.org/2000/svg">
<path d="M39.7601 1.67578L43.9231 0.934909V16.9077H39.7601V1.67578ZM45.837 1.67578V16.8989H50V0.934909L45.837 1.67578ZM33.8419 16.8989H38.0049V5.22138H33.8419V16.8989ZM6.33269 6.8707C5.80349 6.83542 4.58635 6.75604 4.58635 5.66237C4.58635 4.33939 6.34151 4.33939 6.99418 4.33939C8.14959 4.33939 9.64897 4.68337 10.7162 5.00088C10.7162 5.00088 11.3159 5.21256 11.8187 5.42424L11.8628 5.43306V1.8169L11.801 1.79926C10.5398 1.35826 9.07568 0.934909 6.35033 0.934909C1.65814 0.934909 0 3.66908 0 6.00635C0 7.3558 0.582113 10.531 5.95343 10.9014C6.41207 10.9279 7.62039 10.9984 7.62039 12.1362C7.62039 13.0711 6.63256 13.6267 4.9656 13.6267C3.13988 13.6267 1.3759 13.1593 0.299877 12.7183V16.4491C1.9051 16.8725 3.722 17.0841 5.84759 17.0841C10.4339 17.0841 12.489 14.4999 12.489 11.9333C12.489 9.02276 10.1958 7.1353 6.33269 6.8707ZM31.4959 5.0538C27.6504 5.17728 25.7012 6.90598 25.7012 10.3369V16.9077H29.8995V11.5452C29.8995 9.49021 30.1641 8.60822 32.6072 8.52884V5.10672C32.1838 5.02734 31.4959 5.0538 31.4959 5.0538ZM20.2064 5.21256C20.1182 5.44188 19.4479 7.32934 17.8338 9.27853V0.934909L13.5385 1.78162V16.8989H17.8338V12.2244C19.0774 14.0942 19.6948 16.8989 19.6948 16.8989H24.8368C24.3253 14.7822 22.1027 10.8838 22.1027 10.8838C24.096 8.35244 24.978 5.65355 25.1191 5.20374H20.2064V5.21256ZM35.9146 4.10125C37.0436 4.10125 37.9697 3.18398 37.9697 2.05504C37.9697 0.926089 37.0524 0 35.9146 0C34.7857 0 33.8684 0.917269 33.8684 2.05504C33.8684 3.18398 34.7857 4.10125 35.9146 4.10125Z" fill="url(#paint0_linear_272_929)"/>
<defs>
<linearGradient id="paint0_linear_272_929" x1="0.00882263" y1="8.53655" x2="50.0028" y2="8.53655" gradientUnits="userSpaceOnUse">
<stop stop-color="#872166"/>
<stop offset="1" stop-color="#4F2455"/>
</linearGradient>
</defs>
</svg>
