<svg width="20" height="20" viewBox="0 0 20 20" fill="none" xmlns="http://www.w3.org/2000/svg">
<path d="M5.19827 14.802C4.96947 14.5732 4.59844 14.5732 4.3696 14.802L0.171631 18.9996C-0.0572102 19.2283 -0.0572102 19.5993 0.171631 19.8282C0.400432 20.0569 0.771468 20.0569 1.00031 19.8282L5.19827 15.6306C5.42711 15.4017 5.42711 15.0307 5.19827 14.802Z" fill="#3C46B7"/>
<path d="M6.50477 16.4304L3.93701 18.9974C3.70817 19.2262 3.70817 19.5972 3.93701 19.826C4.16581 20.0548 4.53685 20.0548 4.76569 19.826L7.33345 17.259C7.56229 17.0302 7.56229 16.6592 7.33345 16.4304C7.10461 16.2016 6.73357 16.2016 6.50477 16.4304Z" fill="#3C46B7"/>
<path d="M1.00031 16.0633L3.56807 13.4963C3.79691 13.2675 3.79691 12.8965 3.56807 12.6677C3.33927 12.4389 2.96823 12.4389 2.73939 12.6677L0.171631 15.2347C-0.0572102 15.4635 -0.0572102 15.8345 0.171631 16.0633C0.400471 16.2922 0.771507 16.2922 1.00031 16.0633Z" fill="#3C46B7"/>
<path d="M9.23413 7.25029L10.2512 10.3808H13.543L14.5604 7.25025L11.8973 5.31543L9.23413 7.25029Z" fill="#3C46B7"/>
<path d="M5.59033 13.2305C6.48593 14.3291 7.66029 15.1831 8.97696 15.6932L8.17684 13.2305H5.59033Z" fill="#3C46B7"/>
<path d="M14.8057 15.6932C16.1223 15.1831 17.2967 14.3291 18.1923 13.2305H15.6058L14.8057 15.6932Z" fill="#3C46B7"/>
<path d="M5.0816 3.70459C4.3109 4.8933 3.8624 6.26806 3.78735 7.69028L5.88196 6.16849L5.0816 3.70459Z" fill="#3C46B7"/>
<path d="M18.7056 3.70459L17.9053 6.16845L19.9999 7.69024C19.9248 6.26802 19.4763 4.89326 18.7056 3.70459Z" fill="#3C46B7"/>
<path d="M12.4775 4.29449L15.3461 6.37864L16.7511 5.92233L17.8328 2.5926C17.1229 1.82985 16.2684 1.20362 15.3132 0.757812L12.4775 2.81747V4.29449Z" fill="#3C46B7"/>
<path d="M8.4395 6.37862L11.3081 4.29447V2.82163L8.46919 0.759277C7.51535 1.20497 6.66198 1.83065 5.95288 2.5925L7.03454 5.92235L8.4395 6.37862Z" fill="#3C46B7"/>
<path d="M6.67912 7.03857L3.8374 9.10319C3.96655 10.1645 4.30137 11.1631 4.80066 12.0581H8.30687L9.17356 10.8652L8.07791 7.49278L6.67912 7.03857Z" fill="#3C46B7"/>
<path d="M10.1224 11.5557L9.25586 12.7483L10.34 16.0852C10.8438 16.1834 11.3639 16.2354 11.8959 16.2354C12.428 16.2354 12.9481 16.1834 13.4518 16.0852L14.5359 12.7486L13.6691 11.5557H10.1224V11.5557Z" fill="#3C46B7"/>
<path d="M15.7078 7.49282L14.6118 10.8653L15.4785 12.0581H18.9851C19.4844 11.1631 19.8192 10.1645 19.9484 9.10323L17.1065 7.03857L15.7078 7.49282Z" fill="#3C46B7"/>
<path d="M13.9868 0.272764C13.3077 0.0914814 12.6067 0 11.8919 0C11.1759 0 10.4735 0.091872 9.79321 0.273897L11.889 1.79646L13.9868 0.272764Z" fill="#3C46B7"/>
</svg>
