<svg width="22" height="24" viewBox="0 0 22 24" fill="none" xmlns="http://www.w3.org/2000/svg">
<path d="M20.522 2.91549C20.1998 2.55201 19.7298 2.34363 19.2326 2.34363H17.6007V1.85407C17.6007 1.24826 17.0867 0.755371 16.4551 0.755371H5.38872C4.75701 0.755371 4.24318 1.24826 4.24318 1.85402V2.34359H2.61113C2.11394 2.34359 1.6439 2.55201 1.32166 2.91544C1.0027 3.27511 0.864849 3.74753 0.943539 4.2115C1.37234 6.74025 3.03167 8.97426 5.38667 10.1997C5.60184 10.6958 5.84553 11.1658 6.11691 11.6036C6.98373 13.0026 8.06135 13.9693 9.24749 14.4369C9.36769 15.6026 8.55894 16.7069 7.34096 16.97C7.33836 16.9706 7.33654 16.9715 7.33398 16.972C7.09627 17.0265 6.91932 17.2311 6.91932 17.4757V19.8541H5.91638C5.02219 19.8541 4.29473 20.5518 4.29473 21.4094V22.6369C4.29473 22.9233 4.53673 23.1554 4.83529 23.1554H17.0601C17.3587 23.1554 17.6007 22.9233 17.6007 22.6369V21.4094C17.6007 20.5518 16.8733 19.8541 15.9791 19.8541H14.976V17.4758C14.976 17.2306 14.7984 17.0258 14.5601 16.9718C14.5579 16.9713 14.5557 16.9706 14.5535 16.97C13.3263 16.7051 12.516 15.5897 12.6489 14.4153C13.8143 13.9402 14.873 12.982 15.7271 11.6037C15.9984 11.1658 16.2421 10.6958 16.4573 10.1996C18.8122 8.97413 20.4714 6.74016 20.9002 4.2115C20.9789 3.74753 20.841 3.27516 20.522 2.91549ZM2.01062 4.04503C1.98252 3.87935 2.03028 3.71673 2.14515 3.58714C2.2617 3.45571 2.43149 3.38038 2.61108 3.38038H4.24313V4.33422C4.24313 5.82986 4.44216 7.2786 4.81937 8.60348C3.33699 7.48002 2.31635 5.84801 2.01062 4.04503ZM15.9791 20.891C16.2771 20.891 16.5196 21.1236 16.5196 21.4095V22.1186H5.37581V21.4095C5.37581 21.1236 5.61831 20.891 5.91638 20.891H15.9791ZM13.8949 17.9942V19.8542H8.00054V17.9942H13.8949ZM9.41819 16.9574C9.5518 16.8163 9.67397 16.6634 9.78322 16.4998C10.1435 15.9599 10.3325 15.3466 10.341 14.7203C10.533 14.7453 10.7268 14.7588 10.9222 14.7588C11.1349 14.7588 11.3455 14.7431 11.5541 14.7134C11.5664 15.5551 11.908 16.3519 12.4824 16.9573H9.41819V16.9574ZM16.5195 4.33426C16.5195 6.88835 15.908 9.28191 14.7976 11.0739C13.7397 12.7815 12.3633 13.7219 10.9221 13.7219C9.48078 13.7219 8.10432 12.7815 7.04623 11.074C5.93581 9.28196 5.32426 6.88839 5.32426 4.33435V1.85402C5.32426 1.8199 5.35318 1.7922 5.38867 1.7922H16.455C16.4906 1.7922 16.5195 1.81994 16.5195 1.85402V4.33426ZM19.8331 4.04503C19.5274 5.84788 18.5069 7.47985 17.0245 8.60339C17.4017 7.27851 17.6007 5.82986 17.6007 4.33426V3.38042H19.2326C19.4122 3.38042 19.582 3.4558 19.6985 3.58718C19.8134 3.71673 19.8612 3.87935 19.8331 4.04503Z" fill="white" stroke="white" stroke-width="0.5"/>
<path d="M14.2025 6.07819C14.1389 5.89059 13.9697 5.75383 13.7661 5.72539L12.135 5.49806L11.4055 4.08047C11.3144 3.90355 11.1265 3.7915 10.9208 3.7915C10.715 3.7915 10.5271 3.90355 10.436 4.08047L9.70656 5.49806L8.07538 5.72539C7.87174 5.75374 7.70259 5.89055 7.639 6.07823C7.57546 6.26596 7.62846 6.47194 7.77581 6.60971L8.95616 7.71313L8.67748 9.2712C8.64267 9.46572 8.72602 9.66224 8.89252 9.77827C9.05893 9.89425 9.27967 9.90952 9.46178 9.81773L10.9208 9.08216L12.3797 9.81773C12.4588 9.85758 12.5451 9.87723 12.6311 9.87723C12.7432 9.87723 12.8548 9.84385 12.9489 9.77822C13.1154 9.6622 13.1988 9.46567 13.1639 9.27116L12.8853 7.71309L14.0656 6.60967C14.2131 6.47194 14.2661 6.26592 14.2025 6.07819ZM11.9273 7.16087C11.7998 7.27996 11.7417 7.45155 11.7718 7.61977L11.9133 8.41121L11.1722 8.03754C11.0936 7.99781 11.0071 7.97804 10.9207 7.97804C10.8343 7.97804 10.7479 7.9979 10.6692 8.03754L9.92813 8.41121L10.0696 7.61977C10.0997 7.45159 10.0416 7.28 9.91417 7.16087L9.31471 6.60043L10.1432 6.48493C10.3192 6.46043 10.4715 6.35434 10.5502 6.20135L10.9208 5.48131L11.2913 6.20135C11.37 6.35434 11.5222 6.46039 11.6983 6.48493L12.5268 6.60043L11.9273 7.16087Z" fill="white" stroke="white" stroke-width="0.5"/>
</svg>
