<svg width="71" height="45" viewBox="0 0 71 45" fill="none" xmlns="http://www.w3.org/2000/svg">
<mask id="mask0_38_1313" style="mask-type:luminance" maskUnits="userSpaceOnUse" x="33" y="0" width="11" height="15">
<path d="M39.028 0.00293645C38.6321 -0.019519 38.2395 0.0872832 37.9096 0.307256C37.5796 0.527229 37.3301 0.848462 37.1985 1.22257L35.5433 6.97226C35.282 8.01766 35.5433 8.71459 36.8501 8.71459H38.4182C38.5924 8.71459 38.5924 8.80171 38.5924 8.88883L37.8955 11.4152C37.7212 11.7637 37.6341 11.8508 37.1114 11.8508H34.585L33.7139 14.6385H38.7666C39.0636 14.6748 39.364 14.6081 39.6177 14.4495C39.8714 14.291 40.063 14.0502 40.1605 13.7674L41.8157 8.10478C42.2513 6.71091 41.5544 6.1011 40.509 6.1011H38.8537L39.7249 3.05202C39.7745 2.92887 39.8583 2.82245 39.9663 2.74528C40.0743 2.66812 40.2021 2.62341 40.3347 2.61643H42.9482L43.7323 0.00293645H39.028Z" fill="white"/>
</mask>
<g mask="url(#mask0_38_1313)">
<path d="M43.8197 0.00292969H33.8013V14.6559H43.8197V0.00292969Z" fill="#D9D9D9"/>
</g>
<mask id="mask1_38_1313" style="mask-type:luminance" maskUnits="userSpaceOnUse" x="0" y="0" width="71" height="45">
<path d="M54.535 3.22624L53.3153 9.8471H51.8344L54.535 3.22624ZM62.8982 2.44219H63.8564C64.292 2.44219 64.4663 2.61643 64.292 3.05201L63.508 5.75262C63.4685 5.90596 63.3779 6.04128 63.2512 6.13628C63.1246 6.23129 62.9693 6.28033 62.811 6.27532H61.7656L62.8982 2.44219ZM60.546 0.00292969L55.4933 17.1649H48.9595L51.0503 12.025H53.054L52.5313 14.7256H55.5804L57.584 0.00292969H53.2282L45.8233 17.1649H44.6037L48.7853 2.70354H50.789L51.573 0.00292969H44.5166L43.7325 2.70354H45.8233L41.5546 17.1649H28.6614L23.173 0.264279L17.7718 17.1649H0L14.3742 27.5318L8.88589 44.4324L23.173 33.9784L37.5472 44.4324L32.4945 28.8385L31.7975 26.7477H29.881L33.9755 39.4667L23.173 31.7134L12.4577 39.4667L16.5521 26.8348L5.74969 18.9943H19.0785L23.2601 6.36244L27.3546 18.9943H68.3865L71 17.1649H58.6294L61.2429 8.45324H62.2012C62.6368 8.45324 62.6368 8.71459 62.5497 8.97594L60.8945 14.7256H63.9436L65.5117 9.3244C65.773 8.279 65.3374 7.84342 64.9018 7.7563C65.1957 7.7669 65.4846 7.67807 65.7217 7.50417C65.9588 7.33028 66.1304 7.08148 66.2086 6.79802L67.6025 1.83238C67.9509 0.874095 67.5153 0.00292969 66.2086 0.00292969H60.546Z" fill="white"/>
</mask>
<g mask="url(#mask1_38_1313)">
<path d="M70.9129 0.00292969H0V44.3627H70.9129V0.00292969Z" fill="#D9D9D9"/>
</g>
<mask id="mask2_38_1313" style="mask-type:luminance" maskUnits="userSpaceOnUse" x="38" y="24" width="11" height="21">
<path d="M43.9936 24.3955L41.2059 27.9673H43.1225L38.3311 44.4323H42.5998L48.5237 24.3955H43.9936Z" fill="white"/>
</mask>
<g mask="url(#mask2_38_1313)">
<path d="M48.6108 24.3086H38.3311V44.3715H48.6108V24.3086Z" fill="#D9D9D9"/>
</g>
<mask id="mask3_38_1313" style="mask-type:luminance" maskUnits="userSpaceOnUse" x="45" y="24" width="11" height="21">
<path d="M50.9631 24.3955L48.1753 27.9673H50.0919L45.2134 44.4323H49.5692L55.4931 24.3955H50.9631Z" fill="white"/>
</mask>
<g mask="url(#mask3_38_1313)">
<path d="M55.4931 24.3086H45.2134V44.3715H55.4931V24.3086Z" fill="#D9D9D9"/>
</g>
<mask id="mask4_38_1313" style="mask-type:luminance" maskUnits="userSpaceOnUse" x="52" y="24" width="11" height="21">
<path d="M57.9323 24.3955L55.1446 27.9673H57.0611L52.1826 44.4323H56.5384L62.4624 24.3955H57.9323Z" fill="white"/>
</mask>
<g mask="url(#mask4_38_1313)">
<path d="M62.4624 24.3086H52.1826V44.3715H62.4624V24.3086Z" fill="#D9D9D9"/>
</g>
</svg>
