<svg width="26" height="28" viewBox="0 0 26 28" fill="none" xmlns="http://www.w3.org/2000/svg">
<path d="M18.9794 12.42V7.42755C18.9794 7.28464 18.9134 7.15261 18.82 7.04815L13.2227 1.17048C13.1182 1.06058 12.9697 1 12.8214 1H3.94699C2.30866 1 1 2.33603 1 3.97456V20.7554C1 22.394 2.30866 23.708 3.94699 23.708H10.952C12.2769 25.9073 14.6853 27.3808 17.4288 27.3808C21.5965 27.3808 25 23.9938 25 19.8207C25.0056 16.1753 22.3883 13.1293 18.9794 12.42ZM13.3712 2.92997L17.1265 6.88311H14.6908C13.965 6.88311 13.3712 6.28393 13.3712 5.55815V2.92997ZM3.94699 22.6083C2.9189 22.6083 2.09974 21.7835 2.09974 20.7554V3.97456C2.09974 2.94084 2.9189 2.09974 3.94699 2.09974H12.2715V5.55815C12.2715 6.89418 13.3547 7.98285 14.6908 7.98285H17.8797V12.2769C17.7148 12.2715 17.5828 12.255 17.4399 12.255C15.521 12.255 13.7561 12.9918 12.4255 14.1465H5.44262C5.14012 14.1465 4.89276 14.3939 4.89276 14.6962C4.89276 14.9987 5.14012 15.2461 5.44262 15.2461H11.4028C11.0124 15.7959 10.6879 16.3458 10.4351 16.9506H5.44262C5.14012 16.9506 4.89276 17.198 4.89276 17.5005C4.89276 17.8028 5.14012 18.0504 5.44262 18.0504H10.0777C9.94019 18.6002 9.86874 19.2105 9.86874 19.8207C9.86874 20.8104 10.0612 21.7891 10.4075 22.6139H3.94699V22.6083ZM17.4345 26.2867C13.8716 26.2867 10.9739 23.389 10.9739 19.8262C10.9739 16.2633 13.866 13.3656 17.4345 13.3656C21.0028 13.3656 23.8948 16.2633 23.8948 19.8262C23.8948 23.389 20.9973 26.2867 17.4345 26.2867Z" fill="white" stroke="white" stroke-width="0.5"/>
<path d="M5.44293 12.4913H11.0127C11.3152 12.4913 11.5625 12.2438 11.5625 11.9415C11.5625 11.639 11.3152 11.3916 11.0127 11.3916H5.44293C5.14043 11.3916 4.89307 11.639 4.89307 11.9415C4.89307 12.2438 5.14043 12.4913 5.44293 12.4913Z" fill="white" stroke="white" stroke-width="0.5"/>
<path d="M17.2528 16.4337C17.2968 16.4446 17.3407 16.4502 17.3848 16.4502C17.4397 16.4502 17.4892 16.4446 17.5388 16.4281C18.2645 16.4886 18.8309 17.0934 18.8309 17.8303C18.8309 18.1326 19.0783 18.38 19.3806 18.38C19.6831 18.38 19.9304 18.1326 19.9304 17.8303C19.9304 16.6207 19.0728 15.6089 17.9347 15.3724V15.0206C17.9347 14.7181 17.6871 14.4707 17.3848 14.4707C17.0823 14.4707 16.8349 14.7181 16.8349 15.0206V15.3945C15.7352 15.6584 14.916 16.6537 14.916 17.8303C14.916 19.2158 16.0431 20.3375 17.4232 20.3375C18.1985 20.3375 18.8309 20.9697 18.8309 21.745C18.8309 22.5203 18.204 23.1581 17.4232 23.1581C16.6479 23.1581 16.0158 22.5257 16.0158 21.7504C16.0158 21.4481 15.7682 21.2006 15.4659 21.2006C15.1634 21.2006 14.916 21.4481 14.916 21.7504C14.916 22.9327 15.7352 23.9223 16.8349 24.1862V24.7526C16.8349 25.0551 17.0823 25.3024 17.3848 25.3024C17.6871 25.3024 17.9347 25.0551 17.9347 24.7526V24.2027C19.0728 23.9662 19.9304 22.9546 19.9304 21.745C19.9304 20.3594 18.8033 19.2378 17.4232 19.2378C16.6479 19.2378 16.0158 18.6054 16.0158 17.8303C16.0158 17.1154 16.5546 16.5162 17.2528 16.4337Z" fill="white" stroke="white" stroke-width="0.5"/>
</svg>
