<svg width="44" height="51" viewBox="0 0 44 51" fill="none" xmlns="http://www.w3.org/2000/svg">
<path d="M7.2896 26.8271H10.8847C7.43138 22.5222 7.43168 15.6433 10.8848 11.3387H7.69666C13.8111 0.626996 30.1232 0.634328 36.2345 11.3387H33.046C36.4994 15.6436 36.4991 22.5225 33.046 26.8271H36.641C39.2794 26.8271 41.4257 24.7612 41.4257 22.2219V15.944C41.4257 14.8798 41.0478 13.8996 40.4156 13.1189C34.314 -3.82188 9.63894 -3.85121 3.51472 13.1192C2.8828 13.8998 2.50488 14.8799 2.50488 15.9439V22.2218C2.50488 24.7612 4.65131 26.8271 7.2896 26.8271Z" fill="white"/>
<path d="M43.4199 45.9658C41.5666 37.7661 33.7852 29.3371 21.9632 29.3359C10.6221 29.3359 2.47549 37.2814 0.487913 45.9418C-0.0201031 48.2405 1.80518 50.403 4.24035 50.4021C11.9062 50.4021 32.2697 50.4021 39.6862 50.3793C42.1031 50.3793 43.9093 48.244 43.4199 45.9658Z" fill="white"/>
<path d="M25.2257 22.325H32.0711C34.4296 15.8745 29.1004 8.7049 21.9644 8.82973C16.0905 8.82963 11.3118 13.4292 11.3118 19.0828C11.3338 28.9146 24.4128 33.0169 30.463 25.2576H25.2257C23.2074 25.1858 23.2075 22.3966 25.2257 22.325Z" fill="white"/>
</svg>
