<svg width="25" height="24" viewBox="0 0 25 24" fill="none" xmlns="http://www.w3.org/2000/svg">
<path d="M10.5341 10.0658C10.7737 10.0404 10.9975 9.93358 11.1679 9.76318C11.3383 9.59278 11.4451 9.36912 11.4705 9.12949C11.4418 8.90195 11.3306 8.69285 11.158 8.54183C10.9854 8.39081 10.7634 8.30836 10.5341 8.31016H1.7557V6.43747H19.3124V7.95904C19.3124 8.20737 19.4112 8.44553 19.5868 8.62113C19.7624 8.79673 20.0005 8.89538 20.2488 8.89538C20.4764 8.86672 20.6855 8.75557 20.8365 8.58298C20.9875 8.41039 21.0699 8.18837 21.0681 7.95904V0.936345C21.0699 0.707015 20.9875 0.484994 20.8365 0.312401C20.6855 0.139807 20.4764 0.02866 20.2488 0H0.819429C0.59189 0.02866 0.382794 0.139807 0.231775 0.312401C0.0807563 0.484994 -0.00176909 0.707015 2.87683e-05 0.936345V15.9181C2.87683e-05 16.1354 0.086411 16.3438 0.240062 16.4974C0.393713 16.6511 0.602133 16.7374 0.819429 16.7374H4.49093C4.70822 16.7374 4.91664 16.6511 5.0703 16.4974C5.22395 16.3438 5.31033 16.1354 5.31033 15.9181C5.31213 15.6887 5.2296 15.4668 5.07858 15.2942C4.92756 15.1216 4.71847 15.0104 4.49093 14.9817H1.7557V13.109H7.49093C7.72026 13.1108 7.94228 13.0284 8.11487 12.8774C8.28747 12.7263 8.39869 12.5172 8.42735 12.2897C8.40192 12.0501 8.29513 11.8264 8.12473 11.656C7.95433 11.4856 7.73056 11.3788 7.49093 11.3533H1.7557V10.0658H10.5341ZM19.3124 1.87269V4.68179H1.7557V1.87269H19.3124Z" fill="white"/>
<path d="M17.4395 18.61H17.2055C17.1598 18.4537 17.0687 18.3145 16.9436 18.2103C16.8185 18.1061 16.6652 18.0415 16.5032 18.0247C16.3862 18.0247 16.2691 18.0248 16.2691 18.1418C16.1032 18.1958 15.9634 18.3096 15.8769 18.4611C15.7903 18.6125 15.7632 18.7908 15.8009 18.9611C15.8687 19.1953 15.9881 19.4114 16.15 19.5936C16.312 19.7758 16.5127 19.9196 16.7373 20.0145C16.7373 20.2007 16.8113 20.3794 16.943 20.5111C17.0747 20.6428 17.2533 20.7168 17.4395 20.7168C17.8297 20.7168 18.0637 20.4827 18.1418 20.0145C18.4383 19.892 18.6887 19.6789 18.8569 19.4056C19.025 19.1323 19.1025 18.8129 19.0782 18.4929C19.0792 18.0469 18.9103 17.6172 18.606 17.2911C18.3016 16.965 17.8846 16.767 17.4395 16.7372C17.3774 16.7372 17.318 16.7126 17.2741 16.6687C17.2302 16.6248 17.2055 16.5652 17.2055 16.5031C17.2055 16.4411 17.2302 16.3815 17.2741 16.3376C17.318 16.2937 17.3774 16.2691 17.4395 16.2691C17.5566 16.2691 17.6737 16.2691 17.6737 16.3861C17.6876 16.4637 17.7169 16.5377 17.7601 16.6036C17.8033 16.6695 17.8594 16.7261 17.925 16.7698C17.9906 16.8135 18.0644 16.8435 18.1419 16.858C18.2194 16.8726 18.299 16.8713 18.3759 16.8543H18.61C18.7053 16.8283 18.7942 16.7825 18.8706 16.7199C18.947 16.6572 19.0093 16.5792 19.0534 16.4908C19.0976 16.4024 19.1226 16.3057 19.1269 16.207C19.1311 16.1083 19.1146 16.0098 19.0782 15.9179C18.8441 15.4497 18.6099 15.0986 18.1418 14.9816C18.1418 14.7953 18.0679 14.6167 17.9362 14.485C17.8045 14.3533 17.6258 14.2793 17.4395 14.2793C17.2533 14.2793 17.0747 14.3533 16.943 14.485C16.8113 14.6167 16.7373 14.7953 16.7373 14.9816C16.4288 15.0995 16.1631 15.3079 15.9752 15.5794C15.7872 15.8509 15.6856 16.1729 15.6838 16.5031C15.6838 16.9688 15.8688 17.4153 16.1981 17.7446C16.5273 18.0739 16.9739 18.2588 17.4395 18.2588C17.5016 18.2588 17.5612 18.2835 17.6051 18.3274C17.649 18.3713 17.6737 18.4308 17.6737 18.4929C17.6737 18.555 17.649 18.6145 17.6051 18.6584C17.5612 18.7023 17.5016 18.727 17.4395 18.727V18.61Z" fill="white"/>
<path d="M19.8976 11.1196C19.1037 10.8514 18.2766 10.6939 17.4397 10.6514C16.457 10.6778 15.491 10.9103 14.6039 11.3337C13.7167 11.7571 12.9283 12.362 12.2897 13.1093V12.7582C12.2174 12.6306 12.1163 12.5218 11.9944 12.4405C11.8724 12.3592 11.733 12.3076 11.5874 12.29H11.3534C11.1193 12.29 11.0022 12.4071 10.8852 12.6411C10.8187 12.7242 10.7825 12.8274 10.7825 12.9338C10.7825 13.0401 10.8187 13.1433 10.8852 13.2264L11.3534 15.0991L11.7045 15.5673H12.2897L14.1625 14.982C14.2534 14.982 14.3429 14.9609 14.4241 14.9202C14.5054 14.8796 14.5761 14.8206 14.6306 14.7479C14.7149 14.5647 14.7551 14.3643 14.7477 14.1627C14.7021 14.0064 14.6108 13.8673 14.4857 13.7631C14.3606 13.6588 14.2073 13.5942 14.0454 13.5775H13.8113C14.2695 13.0758 14.8314 12.6798 15.458 12.417C16.0845 12.1543 16.7607 12.0311 17.4397 12.0559C18.0801 12.0581 18.7147 12.1771 19.3124 12.407L19.8976 12.6411L20.6 13.1093L20.834 13.3434C21.4031 13.8096 21.8575 14.4004 22.1619 15.0701C22.4663 15.7398 22.6127 16.4706 22.5897 17.2059C22.5897 17.3921 22.6637 17.5708 22.7954 17.7025C22.9271 17.8342 23.1057 17.9082 23.2919 17.9082C23.7601 17.9082 24.1113 17.6741 24.1113 17.2059C24.0836 16.2519 23.8617 15.3137 23.4592 14.4483C23.0568 13.583 22.4821 12.8088 21.7704 12.173L21.1852 11.7048L20.6 11.4707L19.8976 11.1196Z" fill="white"/>
<path d="M23.4089 19.6636C23.4089 19.4295 23.2919 19.3124 23.0578 19.1954H22.5896L20.5999 19.7806C20.4828 19.8977 20.2487 20.0147 20.2487 20.1317C20.2487 20.2488 20.0146 20.4829 20.1317 20.717C20.1952 20.8514 20.2942 20.966 20.4179 21.0484C20.5416 21.1309 20.6854 21.1782 20.8339 21.1851H21.068C20.1075 22.1526 18.8028 22.6997 17.4396 22.7067C16.7612 22.7036 16.0884 22.5848 15.4499 22.3556L14.8647 22.0045L14.1624 21.5363H14.0453C13.4706 21.0421 13.0068 20.4322 12.6841 19.7465C12.3614 19.0607 12.187 18.3145 12.1726 17.5568C12.1726 17.3705 12.0987 17.1919 11.967 17.0602C11.8353 16.9285 11.6566 16.8545 11.4703 16.8545C11.2841 16.8545 11.1054 16.9285 10.9737 17.0602C10.842 17.1919 10.7681 17.3705 10.7681 17.5568C10.7596 18.5056 10.9535 19.4453 11.337 20.3132C11.7205 21.181 12.2847 21.9572 12.992 22.5897H13.343L14.1624 23.1749L14.9817 23.526C15.7529 23.8729 16.5949 24.0334 17.4396 23.9942C18.3974 23.9882 19.3427 23.776 20.2111 23.372C21.0796 22.9681 21.8509 22.3819 22.4726 21.6533V21.8874C22.5005 22.0527 22.5867 22.2026 22.7155 22.3099C22.8443 22.4173 23.0072 22.475 23.1748 22.4726H23.4089C23.5839 22.3957 23.7265 22.26 23.8121 22.089C23.8976 21.918 23.9205 21.7225 23.8771 21.5363L23.4089 19.6636Z" fill="white"/>
</svg>
