<svg width="20" height="20" viewBox="0 0 20 20" fill="none" xmlns="http://www.w3.org/2000/svg">
<path d="M10.0026 4.2876C9.29622 4.2876 8.60572 4.49706 8.0184 4.88949C7.43108 5.28193 6.97333 5.83971 6.70301 6.4923C6.4327 7.14489 6.36197 7.86299 6.49978 8.55578C6.63758 9.24857 6.97773 9.88493 7.4772 10.3844C7.97667 10.8839 8.61304 11.224 9.30583 11.3618C9.99862 11.4996 10.7167 11.4289 11.3693 11.1586C12.0219 10.8883 12.5797 10.4305 12.9721 9.8432C13.3645 9.25589 13.574 8.56539 13.574 7.85903C13.574 6.91182 13.1977 6.00342 12.528 5.33364C11.8582 4.66387 10.9498 4.2876 10.0026 4.2876ZM10.0026 10.0019C9.57877 10.0019 9.16447 9.87621 8.81207 9.64075C8.45968 9.40529 8.18503 9.07062 8.02284 8.67906C7.86065 8.28751 7.81822 7.85665 7.9009 7.44097C7.98358 7.0253 8.18767 6.64348 8.48735 6.3438C8.78704 6.04411 9.16886 5.84003 9.58453 5.75734C10.0002 5.67466 10.4311 5.7171 10.8226 5.87928C11.2142 6.04147 11.5488 6.31613 11.7843 6.66852C12.0198 7.02091 12.1454 7.43521 12.1454 7.85903C12.1449 8.42717 11.9189 8.97189 11.5172 9.37363C11.1154 9.77537 10.5707 10.0013 10.0026 10.0019Z" fill="#727CF5"/>
<path d="M10 0C8.02219 0 6.08879 0.58649 4.4443 1.6853C2.79981 2.78412 1.51809 4.3459 0.761209 6.17316C0.00433283 8.00043 -0.1937 10.0111 0.192152 11.9509C0.578004 13.8907 1.53041 15.6725 2.92894 17.0711C4.32746 18.4696 6.10929 19.422 8.0491 19.8078C9.98891 20.1937 11.9996 19.9957 13.8268 19.2388C15.6541 18.4819 17.2159 17.2002 18.3147 15.5557C19.4135 13.9112 20 11.9778 20 10C19.997 7.34876 18.9424 4.80698 17.0677 2.93227C15.193 1.05756 12.6512 0.0030248 10 0ZM5.71429 17.4121V16.4286C5.71486 15.8604 5.9408 15.3157 6.34254 14.914C6.74428 14.5122 7.289 14.2863 7.85715 14.2857H12.1429C12.711 14.2863 13.2557 14.5122 13.6575 14.914C14.0592 15.3157 14.2851 15.8604 14.2857 16.4286V17.4121C12.9851 18.1716 11.5061 18.5718 10 18.5718C8.49392 18.5718 7.01488 18.1716 5.71429 17.4121ZM15.7086 16.3757C15.6943 15.4388 15.3126 14.545 14.6457 13.8868C13.9787 13.2287 13.0799 12.8589 12.1429 12.8571H7.85715C6.92013 12.8589 6.02132 13.2287 5.35435 13.8868C4.68739 14.545 4.30567 15.4388 4.29143 16.3757C2.99612 15.2191 2.08267 13.6963 1.67203 12.009C1.26139 10.3218 1.37293 8.54953 1.99189 6.92704C2.61084 5.30455 3.70802 3.90833 5.13813 2.92326C6.56823 1.93819 8.26382 1.41073 10.0004 1.41073C11.7369 1.41073 13.4325 1.93819 14.8626 2.92326C16.2927 3.90833 17.3899 5.30455 18.0088 6.92704C18.6278 8.54953 18.7393 10.3218 18.3287 12.009C17.9181 13.6963 17.0046 15.2191 15.7093 16.3757H15.7086Z" fill="#727CF5"/>
</svg>
