<svg width="26" height="26" viewBox="0 0 26 26" fill="none" xmlns="http://www.w3.org/2000/svg">
<path d="M2.7819 20.4285H23.2178C24.6551 18.4803 25.4998 16.1031 25.4998 13.5369C25.4998 6.93007 19.9034 1.57422 12.9999 1.57422C6.0963 1.57422 0.499878 6.93007 0.499878 13.5369C0.499878 16.1031 1.34456 18.4803 2.7819 20.4285Z" fill="#B629B9"/>
<path d="M22.9804 19.878C22.203 18.3901 20.8386 17.9747 20.217 17.8604C20.217 17.8604 18.627 17.5826 17.2223 17.036C17.179 17.1682 17.0849 17.2855 16.9467 17.3568C15.9883 17.8513 14.6957 18.257 13.0335 18.257C12.695 18.257 12.3726 18.2394 12.0644 18.2084C12.0724 18.2255 12.08 18.2426 12.0884 18.2599C11.7462 18.3013 10.6505 18.4606 9.56718 18.9054C7.83143 19.6179 6.91394 20.7341 6.91394 22.1335V23.9884C8.71489 24.9511 10.7901 25.5 12.9995 25.5C17.2216 25.5 20.9544 23.4965 23.2175 20.429C23.1461 20.2293 23.0674 20.0445 22.9804 19.878Z" fill="#72AAFC"/>
<path d="M8.83607 17.0116C7.41705 17.5737 5.78166 17.8594 5.78166 17.8594C5.15998 17.9737 3.79566 18.3891 3.01827 19.877C2.93128 20.0435 2.85261 20.2283 2.78113 20.4281C3.87673 21.9131 5.31677 23.1487 6.99001 24.0284C6.99001 23.5265 6.99001 22.9039 6.99001 22.1325C6.99001 18.7873 12.2037 18.3198 12.2037 18.3198C12.1854 18.2848 12.1684 18.2505 12.152 18.2164C10.9058 18.1032 9.90111 17.7589 9.11912 17.3552C8.973 17.2798 8.87545 17.1531 8.83607 17.0116Z" fill="#548BED"/>
<path d="M17.2981 16.618L16.3184 15.1121C16.1805 14.9002 15.9155 14.7996 15.6626 14.8605C14.8979 15.0446 14.0005 15.1836 13.0332 15.1836C12.9324 15.1836 12.8326 15.1817 12.7333 15.1788V15.9799C12.5855 16.05 12.1351 16.299 11.9371 16.8092C11.7738 17.2298 11.8247 17.7169 12.088 18.2586C12.0354 18.2649 11.9649 18.2741 11.8795 18.2867C12.2433 18.3292 12.6272 18.3533 13.0332 18.3533C14.7503 18.3533 16.0857 17.9343 17.0758 17.4234C17.3788 17.267 17.48 16.8977 17.2981 16.618Z" fill="#548BED"/>
<path d="M10.4018 14.8605C10.1488 14.7995 9.88375 14.9002 9.74585 15.1121L8.76626 16.6179C8.58433 16.8976 8.68545 17.2668 8.98846 17.4233C9.81294 17.8489 10.8778 18.2099 12.2021 18.3191C11.3113 16.6222 12.8084 16.0271 12.8084 16.0271V15.1813C11.9263 15.162 11.1075 15.0306 10.4018 14.8605Z" fill="#3E7FDD"/>
<path d="M17.5211 14.2984C17.1767 13.1442 17.034 12.2432 17.0031 11.547C16.7415 12.4501 16.3998 13.2498 15.9834 13.9316C15.7432 14.325 15.4451 14.6774 15.0988 14.9827C14.5815 17.8708 15.5488 20.0465 16.31 21.2354C16.4704 21.486 16.8979 21.3809 16.8937 21.0916C16.8595 18.6972 18.4483 17.4062 17.5211 14.2984Z" fill="#45304C"/>
<path d="M13.0336 2.4228C13.836 2.4228 14.5166 2.5706 15.0896 2.79832C15.1058 2.69823 15.1143 2.59564 15.1143 2.4912C15.1142 1.39148 14.1827 0.5 13.0336 0.5C11.8846 0.5 10.953 1.39148 10.953 2.4912C10.953 2.59564 10.9615 2.69818 10.9777 2.79832C11.5507 2.5706 12.2313 2.4228 13.0336 2.4228Z" fill="#56415E"/>
<path d="M13.0336 2.00093C12.2159 1.21834 13.0336 0.5 13.0336 0.5C11.8846 0.5 10.953 1.39148 10.953 2.4912C10.953 2.59564 10.9615 2.69818 10.9777 2.79832C11.5507 2.5706 12.2313 2.42285 13.0336 2.42285V2.00093Z" fill="#45304C"/>
<path d="M10.6158 3.08759C11.2578 2.77061 12.0561 2.55064 13.0354 2.55064C14.0146 2.55064 14.8129 2.77061 15.4549 3.08764C15.5689 3.14394 15.679 3.20517 15.7857 3.27015C15.1413 2.49693 14.1491 2.00085 13.0354 2.00085C11.9216 2.00085 10.9294 2.49689 10.285 3.27011C10.3917 3.20512 10.5018 3.14389 10.6158 3.08759Z" fill="#D3DCFB"/>
<path d="M8.96852 8.64587C9.02673 8.4636 9.10637 8.30579 9.21408 8.18963C9.31102 8.08509 9.37183 7.95575 9.37617 7.81738C9.40137 7.00905 9.72601 4.39018 12.8437 5.53394C12.9662 5.57886 13.1029 5.57886 13.2254 5.53394C16.3431 4.39018 16.6677 7.00905 16.6929 7.81738C16.6973 7.95575 16.7581 8.08509 16.855 8.18963C16.9627 8.30579 17.0424 8.4636 17.1006 8.64587V8.64582C17.2585 8.54504 17.5038 8.47556 17.7254 8.48054L17.7255 8.47991V6.518C17.7255 5.03127 16.8595 3.65343 15.4541 2.95955C14.8121 2.64257 14.0138 2.42261 13.0345 2.42261C12.0553 2.42261 11.257 2.64257 10.615 2.95955C9.20964 3.65343 8.34363 5.03127 8.34363 6.518V8.47991L8.34368 8.48054C8.56531 8.47561 8.81056 8.54509 8.96852 8.64587Z" fill="#56415E"/>
<path d="M13.0345 2.42261C12.0553 2.42261 11.257 2.64257 10.615 2.95955C9.20964 3.65343 8.34363 5.03127 8.34363 6.518V8.4799L8.34368 8.48054C8.56536 8.47556 8.81056 8.54509 8.96852 8.64582C9.02673 8.46355 9.10637 8.30574 9.21408 8.18958C9.31102 8.08504 9.37183 7.9557 9.37617 7.81733C9.40091 7.02453 9.71402 4.49042 12.6676 5.47262C12.6553 5.45719 12.6434 5.44166 12.6301 5.42643C11.2443 3.84786 13.0345 2.42261 13.0345 2.42261Z" fill="#45304C"/>
<path d="M8.9298 10.9759C8.9298 10.9759 8.67537 9.43486 8.96842 8.51711C8.70251 8.34749 8.18879 8.26468 7.95777 8.48084C7.48472 8.9234 7.83134 9.59174 7.99721 10.0139C8.04813 10.1435 8.08098 10.2746 8.09583 10.406C8.12813 10.6914 8.28981 11.1091 8.96021 11.0993C8.95006 11.0582 8.9397 11.0177 8.9298 10.9759Z" fill="#FC9460"/>
<path d="M18.1082 8.48084C17.8771 8.26468 17.3634 8.34749 17.0975 8.51711C17.3906 9.43486 17.1362 10.9759 17.1362 10.9759C17.1263 11.0177 17.1159 11.0582 17.1057 11.0993C17.7762 11.1091 17.9379 10.6914 17.9702 10.406C17.985 10.2746 18.0179 10.1435 18.0688 10.0139C18.2346 9.59174 18.5812 8.9234 18.1082 8.48084Z" fill="#FFAA7B"/>
<path d="M16.8787 8.0415C16.7821 7.93731 16.729 7.81558 16.725 7.68951C16.7101 7.20964 16.5835 6.03516 15.733 5.49314C15.1296 5.10868 14.2815 5.11268 13.2122 5.50515C13.0968 5.54748 12.9697 5.54748 12.8543 5.50515C12.7247 5.45759 12.5984 5.41599 12.4753 5.37981C11.6096 5.93536 11.4804 7.13313 11.4651 7.62301C11.4611 7.75201 11.4068 7.87642 11.3079 7.98296C10.7633 8.57034 10.8826 10.2864 11.0096 10.9929C11.2911 12.1816 11.6987 13.2182 12.221 14.0738C12.6531 14.7813 13.267 15.3598 14.0142 15.7717C14.8442 15.3651 15.522 14.7571 15.9858 13.9973C16.4965 13.1609 16.8951 12.1473 17.1709 10.9827C17.2903 10.2565 17.4174 8.62249 16.8787 8.0415Z" fill="#FFC7AB"/>
<path d="M12.2651 13.9976C11.7543 13.161 11.3557 12.1475 11.0805 10.985C10.9562 10.2942 10.8396 8.61616 11.3722 8.04176C11.4689 7.93756 11.522 7.81589 11.5259 7.68977C11.5409 7.2099 11.6675 6.03532 12.518 5.49334C12.5546 5.47 12.5922 5.44823 12.6306 5.42777C11.6671 5.11499 10.8956 5.13647 10.3354 5.49334C9.48485 6.03537 9.35827 7.2099 9.34332 7.68977C9.3394 7.81589 9.28628 7.93756 9.1896 8.04176C8.657 8.61611 8.77364 10.2942 8.89792 10.985C9.17312 12.1475 9.57174 13.161 10.0825 13.9976C10.6011 14.847 11.3864 15.5076 12.3535 15.908C12.7868 16.0873 13.2835 16.0873 13.7166 15.908C13.8573 15.8497 13.9936 15.7853 14.1263 15.7163C13.3467 15.3107 12.7082 14.7234 12.2651 13.9976Z" fill="#FFAA7B"/>
<path d="M20.6595 4.08264C19.8419 4.72086 19.0189 5.74509 19.504 7.1037C20.3697 9.52858 18.106 12.8404 20.6494 15.2745C22.1462 16.7069 23.9354 16.6385 25.1546 16.3398C25.3803 15.4405 25.5 14.5018 25.5 13.5362C25.5 9.69166 23.6045 6.27115 20.6595 4.08264Z" fill="#E440FF"/>
<path d="M5.34034 4.08264C6.15793 4.72086 6.98093 5.74509 6.49589 7.1037C5.63018 9.52858 7.89388 12.8404 5.35044 15.2745C3.85367 16.7069 2.0645 16.6385 0.845232 16.3398C0.61952 15.4405 0.499878 14.5018 0.499878 13.5362C0.499878 9.69166 2.39537 6.27115 5.34034 4.08264Z" fill="#E440FF"/>
<path d="M21.4754 22.3279C21.2238 21.3643 20.5999 20.8054 20.094 20.4994C19.7751 20.3064 19.3593 20.5236 19.3593 20.8847V23.8363C20.1203 23.405 20.8293 22.8986 21.4754 22.3279Z" fill="#548BED"/>
<path d="M16.1093 16.0404C16.1093 17.3472 16.3345 18.6216 17.3057 18.7795C17.687 17.5198 18.1168 16.2775 17.5264 14.2984C17.5121 14.2507 17.4988 14.2041 17.4852 14.1572C16.854 14.481 16.1093 15.0689 16.1093 16.0404Z" fill="#56415E"/>
</svg>
