<svg width="51" height="16" viewBox="0 0 51 16" fill="none" xmlns="http://www.w3.org/2000/svg">
<path d="M18.334 14.7623L20.8737 0.476562H24.8419L22.3816 14.7623H18.334Z" fill="#3C58BF"/>
<path d="M18.334 14.7623L21.588 0.476562H24.8419L22.3816 14.7623H18.334Z" fill="#293688"/>
<path d="M36.7464 0.63492C35.9527 0.317459 34.6829 0 33.0956 0C29.1273 0 26.2702 1.98412 26.2702 4.84126C26.2702 6.98412 28.2543 8.09523 29.8416 8.80951C31.4289 9.5238 31.9051 9.99999 31.9051 10.6349C31.9051 11.5873 30.6353 12.0635 29.5241 12.0635C27.9368 12.0635 27.0638 11.8254 25.7146 11.2698L25.1591 11.0317L24.6035 14.2857C25.5559 14.6825 27.3019 15.0794 29.1273 15.0794C33.3337 15.0794 36.1114 13.0952 36.1114 10.0794C36.1114 8.41269 35.0797 7.14285 32.6987 6.11111C31.2702 5.39682 30.3972 5 30.3972 4.28571C30.3972 3.65079 31.1114 3.01587 32.6987 3.01587C34.048 3.01587 35.0003 3.25397 35.7146 3.57143L36.1114 3.73015L36.7464 0.63492Z" fill="#3C58BF"/>
<path d="M36.7464 0.63492C35.9527 0.317459 34.6829 0 33.0956 0C29.1273 0 26.9845 1.98412 26.9845 4.84126C26.9845 6.98412 28.2543 8.09523 29.8416 8.80951C31.4289 9.5238 31.9051 9.99999 31.9051 10.6349C31.9051 11.5873 30.6353 12.0635 29.5241 12.0635C27.9368 12.0635 27.0638 11.8254 25.7146 11.2698L25.1591 11.0317L24.6035 14.2857C25.5559 14.6825 27.3019 15.0794 29.1273 15.0794C33.3337 15.0794 36.1114 13.0952 36.1114 10.0794C36.1114 8.41269 35.0797 7.14285 32.6987 6.11111C31.2702 5.39682 30.3972 5 30.3972 4.28571C30.3972 3.65079 31.1114 3.01587 32.6987 3.01587C34.048 3.01587 35.0003 3.25397 35.7146 3.57143L36.1114 3.73015L36.7464 0.63492Z" fill="#293688"/>
<path d="M43.5706 0.476562C42.6182 0.476562 41.9039 0.555928 41.5071 1.50831L35.5547 14.7623H39.8404L40.634 12.3813H45.7134L46.1896 14.7623H49.9991L46.6658 0.476562H43.5706ZM41.7452 10.0004C41.9833 9.28608 43.3325 5.79402 43.3325 5.79402C43.3325 5.79402 43.6499 4.921 43.888 4.36545L44.1261 5.71465C44.1261 5.71465 44.9198 9.28608 45.0785 10.0797H41.7452V10.0004Z" fill="#3C58BF"/>
<path d="M44.5229 0.476562C43.5706 0.476562 42.8563 0.555928 42.4594 1.50831L35.5547 14.7623H39.8404L40.634 12.3813H45.7134L46.1896 14.7623H49.9991L46.6658 0.476562H44.5229ZM41.7452 10.0004C42.0626 9.20671 43.3325 5.79402 43.3325 5.79402C43.3325 5.79402 43.6499 4.921 43.888 4.36545L44.1261 5.71465C44.1261 5.71465 44.9198 9.28608 45.0785 10.0797H41.7452V10.0004Z" fill="#293688"/>
<path d="M11.0325 10.4753L10.6356 8.41182C9.92134 6.03087 7.61976 3.41183 5.08008 2.14199L8.6515 14.8404H12.9372L19.3658 0.554688H15.0801L11.0325 10.4753Z" fill="#3C58BF"/>
<path d="M11.0325 10.4753L10.6356 8.41182C9.92134 6.03087 7.61976 3.41183 5.08008 2.14199L8.6515 14.8404H12.9372L19.3658 0.554688H15.8737L11.0325 10.4753Z" fill="#293688"/>
<path d="M0 0.476562L0.714285 0.635293C5.79365 1.82577 9.28571 4.84164 10.6349 8.41306L9.20634 1.66704C8.96825 0.714658 8.25396 0.476562 7.38095 0.476562H0Z" fill="#FFBC00"/>
<path d="M0 0.476562C5.07936 1.66704 9.28571 4.76227 10.6349 8.3337L9.28571 2.69878C9.04761 1.7464 8.25396 1.19085 7.38095 1.19085L0 0.476562Z" fill="#F7981D"/>
<path d="M0 0.476562C5.07936 1.66704 9.28571 4.76227 10.6349 8.3337L9.68253 5.23846C9.44444 4.28608 9.12698 3.3337 8.01587 2.93688L0 0.476562Z" fill="#ED7C00"/>
<path d="M15.0014 9.999L12.303 7.30059L11.0332 10.3165L10.7157 8.33234C10.0014 5.95139 7.69984 3.33234 5.16016 2.0625L8.73158 14.7609H13.0173L15.0014 9.999Z" fill="#051244"/>
<path d="M22.3816 14.7616L18.9689 11.2695L18.334 14.7616H22.3816Z" fill="#051244"/>
<path d="M31.5102 9.83984C31.8277 10.1573 31.9864 10.3954 31.9071 10.7129C31.9071 11.6652 30.6372 12.1414 29.5261 12.1414C27.9388 12.1414 27.0658 11.9033 25.7166 11.3478L25.161 11.1097L24.6055 14.3637C25.5578 14.7605 27.3039 15.1573 29.1293 15.1573C31.669 15.1573 33.7324 14.443 34.9229 13.1732L31.5102 9.83984Z" fill="#051244"/>
<path d="M36.1133 14.7601H39.8434L40.6371 12.3791H45.7164L46.1926 14.7601H50.0022L48.653 8.96645L43.8911 4.36328L44.1291 5.63312C44.1291 5.63312 44.9228 9.20455 45.0815 9.9982H41.7482C42.0657 9.20455 43.3355 5.79185 43.3355 5.79185C43.3355 5.79185 43.653 4.91884 43.8911 4.36328" fill="#051244"/>
</svg>
