<svg width="25" height="22" viewBox="0 0 25 22" fill="none" xmlns="http://www.w3.org/2000/svg">
<path d="M22.0725 3.90625H21.0938V2.92754C21.0938 1.31328 19.7805 0 18.1663 0H2.92969C1.31426 0 0 1.31426 0 2.92969V18.5547C0 20.1701 1.31426 21.4844 2.92969 21.4844H22.0725C23.6868 21.4844 25 20.1711 25 18.5569V6.83379C25 5.21953 23.6867 3.90625 22.0725 3.90625ZM2.92969 1.95312H18.1663C18.7035 1.95312 19.1406 2.39023 19.1406 2.92754V3.90625H2.92969C2.39121 3.90625 1.95312 3.46816 1.95312 2.92969C1.95312 2.39121 2.39121 1.95312 2.92969 1.95312ZM23.0469 14.6484H19.1406C18.0637 14.6484 17.1875 13.7723 17.1875 12.6953C17.1875 11.6184 18.0637 10.7422 19.1406 10.7422H23.0469V14.6484ZM23.0469 8.78906H19.1406C16.9867 8.78906 15.2344 10.5414 15.2344 12.6953C15.2344 14.8492 16.9867 16.6016 19.1406 16.6016H23.0469V18.5569C23.0469 19.0941 22.6098 19.5312 22.0725 19.5312H2.92969C2.39121 19.5312 1.95312 19.0932 1.95312 18.5547V5.69141C2.25879 5.7998 2.58735 5.85938 2.92969 5.85938H22.0725C22.6098 5.85938 23.0469 6.29648 23.0469 6.83374V8.78906Z" fill="white"/>
</svg>
