<svg width="53" height="51" viewBox="0 0 53 51" fill="none" xmlns="http://www.w3.org/2000/svg">
<path d="M47.6291 0.402344H4.81257C2.29492 0.402344 0.246826 2.37363 0.246826 4.79688V10.6562C0.246826 13.0795 2.29492 15.0508 4.81257 15.0508H11.0017V9.19141H7.95787C7.11665 9.19141 6.43595 8.53623 6.43595 7.72656C6.43595 6.91689 7.11665 6.26172 7.95787 6.26172H44.4838C45.3251 6.26172 46.0058 6.91689 46.0058 7.72656C46.0058 8.53623 45.3251 9.19141 44.4838 9.19141H41.44V15.0508H47.6291C50.1468 15.0508 52.1949 13.0795 52.1949 10.6562V4.79688C52.1949 2.37363 50.1468 0.402344 47.6291 0.402344Z" fill="white"/>
<path d="M26.2208 34.1914C28.7424 34.1914 30.7865 32.2239 30.7865 29.7969C30.7865 27.3698 28.7424 25.4023 26.2208 25.4023C23.6992 25.4023 21.655 27.3698 21.655 29.7969C21.655 32.2239 23.6992 34.1914 26.2208 34.1914Z" fill="white"/>
<path d="M36.8741 50.4023C37.7146 50.4023 38.3961 49.7465 38.3961 48.9375V9.19141H14.0454V48.9375C14.0454 49.7465 14.7268 50.4023 15.5673 50.4023H36.8741ZM27.7427 44.4453C27.7427 45.255 27.0619 45.9102 26.2207 45.9102C25.3795 45.9102 24.6988 45.255 24.6988 44.4453V41.5156C24.6988 40.706 25.3795 40.0508 26.2207 40.0508C27.0619 40.0508 27.7427 40.706 27.7427 41.5156V44.4453ZM24.6988 15.0508C24.6988 14.2411 25.3795 13.5859 26.2207 13.5859C27.0619 13.5859 27.7427 14.2411 27.7427 15.0508V17.9805C27.7427 18.7901 27.0619 19.4453 26.2207 19.4453C25.3795 19.4453 24.6988 18.7901 24.6988 17.9805V15.0508ZM26.2207 22.4727C30.4165 22.4727 33.8303 25.7585 33.8303 29.7969C33.8303 33.8353 30.4165 37.1211 26.2207 37.1211C22.025 37.1211 18.6112 33.8353 18.6112 29.7969C18.6112 25.7585 22.025 22.4727 26.2207 22.4727Z" fill="white"/>
</svg>
