<svg width="24" height="24" viewBox="0 0 24 24" fill="none" xmlns="http://www.w3.org/2000/svg">
<path d="M14.6691 19.9113L12.9375 21.6225V12.9375C12.9375 12.4197 12.5178 12 12 12C11.4822 12 11.0625 12.4197 11.0625 12.9375V21.5298L9.42459 19.9113C9.05629 19.5473 8.46271 19.5509 8.09877 19.9192C7.73484 20.2875 7.7384 20.881 8.10665 21.245L10.0561 23.1714C10.588 23.7058 11.2948 24 12.0469 24C12.799 24 13.5057 23.7058 14.0376 23.1714L15.9871 21.245C16.3553 20.881 16.3589 20.2875 15.995 19.9192C15.631 19.5509 15.0374 19.5473 14.6691 19.9113Z" fill="white"/>
<path d="M23.0625 12.9375C22.5447 12.9375 22.125 13.3572 22.125 13.875C22.125 14.9089 21.2839 15.75 20.25 15.75H15.75C15.2322 15.75 14.8125 16.1697 14.8125 16.6875C14.8125 17.2053 15.2322 17.625 15.75 17.625H20.25C22.3177 17.625 24 15.9427 24 13.875C24 13.3572 23.5803 12.9375 23.0625 12.9375Z" fill="white"/>
<path d="M14.5862 11.8974C14.7432 11.9985 14.919 12.0469 15.0929 12.0468C15.401 12.0468 15.7028 11.8951 15.882 11.6168C16.4396 10.7508 16.7344 9.76284 16.7344 8.75977C16.7344 5.96831 14.6105 3.69727 12 3.69727C9.38948 3.69727 7.26562 5.96831 7.26562 8.75977C7.26562 9.83348 7.53741 10.7959 8.07342 11.6203C8.35566 12.0543 8.93639 12.1774 9.37041 11.8952C9.80447 11.613 9.92756 11.0323 9.64533 10.5982C9.31045 10.0831 9.14062 9.46463 9.14062 8.75977C9.14062 7.00219 10.4233 5.57227 12 5.57227C13.5767 5.57227 14.8594 7.00219 14.8594 8.75977C14.8594 9.40205 14.6679 10.039 14.3055 10.6016C14.0252 11.037 14.1509 11.6171 14.5862 11.8974Z" fill="white"/>
<path d="M19.4531 9.70312C19.9709 9.70312 20.3906 9.28339 20.3906 8.76562C20.3906 8.24786 19.9709 7.82812 19.4531 7.82812C18.9354 7.82812 18.5156 8.24786 18.5156 8.76562C18.5156 9.28339 18.9354 9.70312 19.4531 9.70312Z" fill="white"/>
<path d="M4.54688 9.70312C5.06464 9.70312 5.48438 9.28339 5.48438 8.76562C5.48438 8.24786 5.06464 7.82812 4.54688 7.82812C4.02911 7.82812 3.60938 8.24786 3.60938 8.76562C3.60938 9.28339 4.02911 9.70312 4.54688 9.70312Z" fill="white"/>
<path d="M20.25 0H3.75C1.68225 0 0 1.68225 0 3.75V13.875C0 15.9427 1.68225 17.625 3.75 17.625H8.25C8.76778 17.625 9.1875 17.2053 9.1875 16.6875C9.1875 16.1697 8.76778 15.75 8.25 15.75H3.75C2.71613 15.75 1.875 14.9089 1.875 13.875V3.75C1.875 2.71613 2.71613 1.875 3.75 1.875H20.25C21.2839 1.875 22.125 2.71613 22.125 3.75V9.1875C22.125 9.70528 22.5447 10.125 23.0625 10.125C23.5803 10.125 24 9.70528 24 9.1875V3.75C24 1.68225 22.3177 0 20.25 0Z" fill="white"/>
</svg>
